<svg width="88" height="80" viewBox="0 0 88 80" fill="none" xmlns="http://www.w3.org/2000/svg">
<path d="M31.8111 70.2593C31.2656 69.8229 30.7202 69.4956 30.1747 69.2774C29.6292 69.0592 29.0837 68.9501 28.4291 68.9501C27.229 68.841 25.9198 69.1683 24.6106 69.3865C23.3014 69.7138 22.1013 70.0411 21.2286 70.3684C20.3558 70.6957 19.7012 70.9139 19.7012 70.9139C19.7012 70.9139 20.2467 71.2412 21.2286 71.6776C22.1013 72.114 23.4105 72.5504 24.8288 72.7686C26.2471 72.9868 27.6654 72.9868 28.9746 72.6595C30.3929 72.3322 31.4838 71.5685 31.8111 70.2593Z" fill="black"/>
<path d="M27.9926 64.6954C28.5381 65.7864 29.1927 66.8774 30.1746 67.532C30.611 67.8593 31.1565 68.1866 31.702 68.2957C32.2475 68.4048 32.9021 68.4048 33.4476 68.0775C33.4476 66.7683 33.1203 65.6773 32.5748 64.8045C32.0293 63.9317 31.1565 63.0589 30.3928 62.4044C29.52 61.7498 28.7563 61.2043 28.1017 60.7679C27.4471 60.3315 27.0107 60.1133 27.0107 60.1133C27.0107 60.1133 27.0107 60.2224 27.0107 60.5497C27.0107 60.7679 27.1198 61.0952 27.1198 61.5316C27.2289 62.4043 27.4471 63.6044 27.9926 64.6954Z" fill="black"/>
<path d="M18.8288 67.6413C20.138 67.5322 21.229 67.0958 21.9927 66.0048C21.3381 64.9138 20.3562 64.2592 19.2652 63.9319C18.1742 63.6046 16.7559 63.4955 15.4467 63.4955C14.1375 63.4955 12.8283 63.4955 11.8464 63.4955C10.8646 63.4955 10.21 63.4955 10.21 63.4955C10.21 63.4955 10.319 63.6046 10.5372 63.8228C10.7554 64.041 11.0828 64.3683 11.5192 64.6956C12.392 65.3502 13.4829 66.1139 14.7921 66.7685C16.2104 67.314 17.6287 67.7504 18.8288 67.6413Z" fill="black"/>
<path d="M21.2291 62.6222C21.9928 63.495 22.9747 64.1496 24.1748 64.0405C24.7203 62.8404 24.6112 61.6403 24.2839 60.5493C23.9566 59.4583 23.302 58.4764 22.7565 57.6036C22.1019 56.7308 21.5564 56.0762 21.0109 55.5307C20.7927 55.3125 20.5745 55.0944 20.4654 54.8762C20.3563 54.7671 20.2472 54.658 20.2472 54.658C20.2472 54.658 20.2472 54.767 20.1381 54.9852C20.029 55.2034 20.029 55.5307 19.9199 55.9671C19.8108 56.8399 19.7017 57.9309 19.9199 59.131C20.1381 60.5493 20.5745 61.7494 21.2291 62.6222Z" fill="black"/>
<path d="M5.73734 53.5681C4.86455 53.2408 4.20996 53.1317 4.20996 53.1317C4.20996 53.1317 4.31907 53.2408 4.42817 53.5681C4.53727 53.7863 4.75547 54.1136 4.97367 54.55C5.19187 54.9864 5.51915 55.4228 5.84645 55.9683C6.06465 56.1865 6.17375 56.5138 6.39194 56.732L6.50105 56.9502L6.71923 57.1684C6.82833 57.2775 6.93745 57.4957 7.04654 57.6048C8.13754 58.8049 9.44671 59.7868 10.6468 60.2232C11.956 60.6596 13.1561 60.5505 14.2471 59.6777C13.9198 58.3685 13.2652 57.4957 12.2833 56.8411C12.0651 56.6229 11.7378 56.5138 11.5196 56.2956C11.3014 56.0774 10.9741 55.9683 10.6468 55.7501C10.3195 55.5319 10.1013 55.4228 9.77402 55.2046C9.44672 55.0955 9.22851 54.8773 8.90121 54.7682C7.81022 54.2227 6.61013 53.8954 5.73734 53.5681Z" fill="black"/>
<path d="M14.5737 55.8581C14.901 56.9491 15.6647 57.8219 16.8648 58.1492C17.7376 57.1673 17.9558 55.9672 18.0649 54.9853C18.174 53.8943 17.9558 52.9124 17.8467 52.0396C17.8467 51.7123 17.6285 51.0577 17.5194 50.6213C17.4103 50.1849 17.192 49.7485 17.0829 49.3121C16.9738 48.9848 16.8648 48.6575 16.7557 48.4393C16.6466 48.2211 16.6466 48.1121 16.6466 48.1121C16.6466 48.1121 16.5375 48.2211 16.4284 48.4393C16.3193 48.6575 16.1011 48.9848 15.8829 49.3121C15.4465 50.0758 15.0101 51.1668 14.6828 52.2578C14.5737 52.5851 14.5737 52.8033 14.4646 53.1306C14.3555 53.4579 14.3555 53.6761 14.3555 54.0034C14.3555 54.3307 14.3555 54.5489 14.3555 54.8762C14.4646 55.2035 14.4646 55.5308 14.5737 55.8581Z" fill="black"/>
<path d="M4.42784 49.0947C4.64604 49.3129 4.86421 49.5312 5.08241 49.7494C5.30061 49.9675 5.62792 50.1857 5.84612 50.2948C6.93711 50.9494 8.02811 51.2767 9.3373 50.8403C9.4464 50.1857 9.44639 49.6402 9.2282 49.0947C9.1191 48.8766 9.00998 48.5493 8.90088 48.3311C8.79178 48.1129 8.57359 47.8947 8.46449 47.5674C7.80989 46.5855 6.7189 45.8218 5.73701 45.0581C4.75512 44.2944 3.66415 43.6398 2.79136 43.2034C1.91856 42.767 1.37305 42.4397 1.37305 42.4397C1.37305 42.4397 1.37305 42.5488 1.48215 42.8761C1.59125 43.2034 1.70034 43.5307 1.80944 43.9671C2.13673 44.8399 2.57316 46.1491 3.33685 47.2401C3.55505 48.1129 3.99145 48.6584 4.42784 49.0947Z" fill="black"/>
<path d="M11.1922 48.6575C11.4104 49.203 11.8468 49.6394 12.2832 49.9667C13.3742 49.3121 14.0288 48.3302 14.4652 47.2392C14.5743 47.021 14.5743 46.6937 14.6834 46.4755C14.6834 46.3664 14.6834 46.1482 14.7925 46.0391C14.7925 45.93 14.7925 45.7118 14.9016 45.6027C15.0107 45.0572 15.0107 44.5117 15.0107 43.9662C14.9016 42.8752 14.9016 41.8933 14.6834 41.1296C14.5743 40.8023 14.5743 40.475 14.4652 40.2568C14.4652 40.0387 14.3561 39.9296 14.3561 39.9296C14.3561 39.9296 14.247 40.0387 14.0288 40.2568C13.8106 40.475 13.5924 40.6933 13.3742 41.0206C12.8287 41.6752 12.1741 42.657 11.6286 43.748C11.0831 44.839 10.7559 46.0391 10.7559 47.2392C10.7559 47.5665 10.7559 47.7847 10.865 48.112C10.9741 48.112 11.0832 48.3302 11.1922 48.6575Z" fill="black"/>
<path d="M2.24559 38.7305C2.35469 39.0578 2.57289 39.276 2.79109 39.6033C3.00929 39.8214 3.22746 40.1487 3.44566 40.3669C4.31845 41.2397 5.40944 41.7852 6.71863 41.567C6.93683 41.0215 7.04594 40.3669 6.93684 39.8214C6.93684 39.4941 6.82773 39.2759 6.71863 38.9486C6.60953 38.7305 6.50044 38.4032 6.39135 38.185C6.17315 37.6395 5.84586 37.094 5.40946 36.6576C5.19126 36.4394 4.97306 36.1121 4.86396 35.8939C4.64577 35.6757 4.42756 35.4575 4.20936 35.1302C3.33657 34.1483 2.35469 33.2755 1.7001 32.6209C1.0455 31.9663 0.5 31.5299 0.5 31.5299C0.5 31.5299 0.5 32.1845 0.5 33.1664C0.5 33.7119 0.609079 34.2574 0.718178 34.8029C0.827277 35.1302 0.827291 35.4575 0.93639 35.7848C1.04549 36.1121 1.04548 36.4394 1.26367 36.7667C1.59097 37.5304 1.9183 38.185 2.24559 38.7305Z" fill="black"/>
<path d="M9.7729 40.8031C10.973 40.3667 11.8458 39.4939 12.3913 38.6211C12.5004 38.4029 12.6095 38.1847 12.7186 37.8574C12.8277 37.6392 12.9368 37.3119 13.0459 37.0937C13.2641 36.5483 13.3732 36.0028 13.4823 35.5664C13.5914 35.0209 13.7005 34.5845 13.7005 34.039C13.7005 33.8208 13.7004 33.6026 13.8095 33.3844C13.8095 33.1662 13.8095 32.948 13.8095 32.8389C13.9186 32.0752 13.9187 31.6388 13.9187 31.6388C13.9187 31.6388 13.4822 31.857 12.7186 32.4025C12.5004 32.5116 12.3913 32.6207 12.1731 32.8389C11.9549 32.948 11.7367 33.1662 11.6276 33.3844C11.1912 33.7117 10.8639 34.1481 10.4275 34.5845C10.2093 34.8027 10.1002 35.0209 9.88201 35.3482C9.77291 35.4573 9.6638 35.5664 9.6638 35.7846C9.5547 35.8937 9.55468 36.0028 9.44558 36.221C9.22739 36.7664 9.00919 37.3119 8.90009 37.8574C8.90009 38.1847 8.79102 38.4029 8.79102 38.7302C8.79102 39.0575 8.90009 39.2757 8.90009 39.4939C9.11829 39.9303 9.3365 40.3667 9.7729 40.8031Z" fill="black"/>
<path d="M5.19121 24.9841C4.86391 24.4386 4.53663 23.8931 4.31843 23.3476C3.99113 22.8021 3.66382 22.3657 3.44562 21.9293C2.90012 21.1656 2.57284 20.6201 2.57284 20.6201C2.57284 20.6201 2.35465 21.2747 2.24556 22.2566C2.13646 22.693 2.13644 23.3476 2.02734 23.8931C2.02734 24.2204 2.02734 24.5477 2.02734 24.875C2.02734 25.2023 2.02734 25.5296 2.02734 25.8569C2.13644 26.5115 2.13643 27.1661 2.35463 27.8207C2.57283 28.4753 2.79104 29.1299 3.11833 29.5662C3.77293 30.6572 4.75483 31.4209 6.06402 31.53C6.28222 31.3118 6.39131 30.9845 6.50041 30.7663C6.60951 30.5481 6.71859 30.2208 6.71859 30.0026C6.82769 29.4571 6.71862 28.9116 6.60952 28.3662C6.50042 27.8207 6.28222 27.1661 6.06402 26.6206C5.84583 26.1842 5.51851 25.6387 5.19121 24.9841Z" fill="black"/>
<path d="M12.2822 30.0027C12.7186 29.5663 13.0459 29.239 13.2641 28.6935C13.5913 28.2571 13.8096 27.8207 14.0278 27.2752C14.1369 27.057 14.2459 26.8388 14.355 26.6206C14.4641 26.4024 14.5733 26.1842 14.6824 25.966C14.9006 25.5296 15.0097 25.2023 15.1188 24.7659C15.3369 24.1113 15.446 23.6749 15.446 23.6749C15.446 23.6749 14.9006 23.784 14.1369 24.1113C13.3732 24.4386 12.3913 24.875 11.4094 25.6387C11.1912 25.8569 10.973 25.966 10.7548 26.1842C10.5366 26.4024 10.3184 26.6206 10.1002 26.8388C9.66379 27.2752 9.3365 27.8207 9.1183 28.2571C8.9001 28.8026 8.79102 29.3481 8.79102 29.8936C8.79102 30.1118 8.79099 30.4391 8.90009 30.6573C9.00919 30.8755 9.11831 31.2028 9.22741 31.421C10.5366 31.421 11.5185 30.7664 12.2822 30.0027Z" fill="black"/>
<path d="M8.46438 21.6017C8.68258 21.3835 8.79167 21.1653 8.90077 20.838C9.00987 20.6198 9.11898 20.2925 9.11898 20.0743C9.11898 19.8561 9.22809 19.5288 9.22809 19.2015C9.22809 18.656 9.22808 18.0014 9.11898 17.3468C9.00988 16.6923 8.9008 16.1468 8.7917 15.4922C8.4644 14.2921 8.13708 13.092 7.80978 12.2192C7.48248 11.3464 7.26428 10.8009 7.26428 10.8009C7.26428 10.8009 7.1552 10.91 7.0461 11.1282C6.93701 11.3464 6.71881 11.7828 6.50061 12.2192C6.06421 13.092 5.62782 14.2921 5.40962 15.6013C5.30052 16.2559 5.19141 16.9104 5.19141 17.565C5.19141 17.8923 5.19141 18.2196 5.30051 18.5469C5.30051 18.8742 5.40962 19.2015 5.51872 19.5288C5.73692 20.0743 5.95511 20.6198 6.3915 21.1653C6.8279 21.6017 7.26429 22.0381 7.91888 22.2563C8.13708 22.0381 8.35528 21.8199 8.46438 21.6017Z" fill="black"/>
<path d="M18.8285 16.8006C18.9376 16.5824 19.0467 16.4733 19.0467 16.4733C19.0467 16.4733 18.9376 16.4733 18.6103 16.4733C18.3921 16.4733 18.0648 16.4733 17.6284 16.5824C17.192 16.5824 16.7556 16.6915 16.2101 16.8006C15.9919 16.9097 15.6646 16.9097 15.4464 17.0188C15.2282 17.1279 14.9009 17.237 14.6827 17.3461C14.1372 17.5643 13.5917 17.7825 13.0462 18.1098C12.6098 18.4371 12.1734 18.8734 11.737 19.2007C11.5188 19.4189 11.4097 19.6371 11.3006 19.8553C11.1915 20.0735 11.0825 20.4008 10.9734 20.619C10.8643 20.8372 10.8643 21.1645 10.8643 21.3827C10.8643 21.71 10.9734 21.9282 10.9734 22.2555C11.628 22.3646 12.1734 22.3646 12.7189 22.2555C13.2644 22.1464 13.8099 21.9282 14.2463 21.6009C14.4645 21.4918 14.6827 21.2736 14.9009 21.1645C15.01 21.0554 15.1191 20.9463 15.2282 20.9463C15.3373 20.8372 15.4464 20.7281 15.5555 20.7281C15.9919 20.4008 16.3192 19.9644 16.6465 19.6371C16.9738 19.2007 17.3011 18.8734 17.5193 18.5462C17.6284 18.4371 17.6284 18.3279 17.7375 18.2189C17.8466 18.1098 17.8466 18.0007 17.9557 18.0007C18.0648 17.7825 18.1739 17.6734 18.283 17.5643C18.5012 17.237 18.7194 17.0188 18.8285 16.8006Z" fill="black"/>
<path d="M12.0646 13.5281C12.61 13.2008 13.0464 12.8735 13.3737 12.4371C13.701 12.0007 13.9192 11.4552 14.1374 10.9097C14.4647 9.81873 14.5738 8.50954 14.5738 7.30945C14.5738 6.98215 14.5738 6.65486 14.5738 6.32757C14.5738 6.00027 14.5738 5.67297 14.5738 5.45477C14.5738 4.90927 14.4647 4.36378 14.4647 3.81828C14.3556 2.94549 14.2465 2.29089 14.2465 2.29089C14.2465 2.29089 14.1374 2.4 13.9192 2.61819C13.701 2.83639 13.4828 3.16368 13.1555 3.49098C12.8282 3.92738 12.5009 4.36378 12.2827 4.80018C11.9554 5.34567 11.6281 5.89117 11.41 6.43666C11.1918 7.09126 10.9735 7.63675 10.7553 8.29134C10.6463 8.94594 10.5371 9.60054 10.5371 10.146C10.428 11.6734 10.9736 12.7644 12.0646 13.5281Z" fill="black"/>
<path d="M21.2284 12.874C21.6648 12.5467 22.1012 12.2194 22.4285 11.8921C22.7558 11.5648 23.0831 11.3466 23.4104 11.0193C23.6286 10.8011 23.8468 10.5829 24.065 10.3647C24.1741 10.2556 24.2832 10.1465 24.2832 10.1465C24.2832 10.1465 23.7377 10.0374 22.8649 9.92831C22.4285 9.92831 21.9921 9.81921 21.4466 9.81921C20.9011 9.81921 20.3556 9.81921 19.701 9.92831C18.501 10.1465 17.3009 10.4738 16.4281 11.1284C15.9917 11.4557 15.6644 11.8921 15.3371 12.3285C15.1189 12.7649 15.0098 13.3104 15.0098 13.965C16.2099 14.5105 17.41 14.4014 18.3918 14.1832C18.9373 14.0741 19.3737 13.8559 19.9192 13.5286C20.3556 13.5286 20.792 13.2013 21.2284 12.874Z" fill="black"/>
<path d="M18.8283 62.4047C22.3195 65.2413 26.4653 67.2051 30.611 68.8415C33.9931 70.1507 38.357 72.4418 42.721 74.5147C38.7934 75.7148 34.8659 76.8058 31.702 77.2422C31.2656 77.3513 33.4476 79.4241 33.7749 79.315C37.3752 78.2241 41.0845 76.9149 44.7939 75.3875C48.8306 77.2422 52.7581 78.7695 56.0311 79.315C56.4675 79.4241 57.6676 77.2422 57.3403 77.1331C54.2855 76.5876 50.6853 75.7148 46.9759 74.5147C53.0854 71.8963 58.9768 69.0597 64.1044 66.2232C69.6685 63.1684 73.8142 58.9135 76.5417 53.2404C79.051 48.0036 80.9057 42.1123 81.1239 36.33C81.4512 28.2567 78.7237 20.2924 74.5779 13.4192C73.3779 11.4554 71.9596 9.38252 70.4322 7.52784C70.5413 6.98234 70.5413 6.54595 70.5413 6.00045C70.4322 5.45496 70.214 4.90946 69.8867 4.47306C69.2321 3.49117 68.2502 2.72748 67.1592 2.07288C66.0682 1.52739 64.9772 1.09099 64.1044 0.872796C63.668 0.763697 63.3407 0.763692 63.1225 0.654593C63.0134 0.654593 62.9044 0.654593 62.7953 0.654593C62.6862 0.654593 62.6861 0.654593 62.6861 0.654593C62.6861 0.654593 62.6861 0.654591 62.6861 0.76369C62.6861 0.87279 62.7953 0.872795 62.7953 0.981894C62.9044 1.20009 63.0134 1.52738 63.2316 1.85468C63.668 2.61838 64.2135 3.60027 64.759 4.47306C65.0863 4.90946 65.4136 5.45496 65.85 5.78226C66.0682 6.00045 66.2864 6.21865 66.3955 6.32775C66.6137 6.54595 66.8319 6.65505 67.0501 6.87325C67.4865 7.20054 67.9229 7.41874 68.4684 7.52784C68.9048 7.63694 69.3412 7.63694 69.7776 7.63694C72.7233 11.1281 75.1234 15.1648 76.9781 19.2014C79.2692 24.3291 80.5784 30.0023 80.4693 35.6754C80.3602 41.8941 78.2873 48.1127 75.4507 53.6768C73.2687 57.9316 70.1049 61.4228 66.1773 64.0412C62.577 66.3323 58.6495 68.0778 54.7219 69.8234C51.7762 71.1326 48.2851 72.4418 44.7939 73.5328C37.2661 71.0235 29.3018 67.5323 23.8469 64.4776C21.0103 62.8411 18.3919 60.8773 16.2099 58.368C14.0279 55.8587 12.5006 52.9131 11.3005 49.8583C8.90028 44.076 7.48198 38.1847 7.80928 31.8569C8.24567 24.5473 11.0823 17.565 15.1189 11.5645C16.1008 10.0371 17.3009 8.50973 18.501 6.98234C18.9374 6.98234 19.3738 6.98235 19.7011 6.87325C20.2466 6.76415 20.683 6.43684 21.1194 6.21865C21.3376 6.10955 21.5558 5.89135 21.774 5.67315C21.9922 5.45495 22.2104 5.23675 22.3195 5.12765C22.6468 4.69126 23.0832 4.25487 23.4105 3.81847C24.0651 2.83658 24.6106 1.96378 24.9378 1.20009C25.156 0.872791 25.2651 0.545499 25.3742 0.327301C25.3742 0.218202 25.4833 0.109097 25.4833 0.109097V0C25.4833 0 25.4833 0 25.3742 0C25.2651 0 25.2652 0 25.047 0C24.8288 0 24.5015 0.109096 24.0651 0.218195C23.1923 0.436393 22.1013 0.763697 21.0103 1.41829C19.9193 1.96379 18.9374 2.83658 18.2828 3.81847C17.9555 4.25487 17.7373 4.80036 17.6282 5.34586C17.5191 5.78225 17.5191 6.32774 17.7373 6.76414C14.9007 10.1462 12.6096 13.9647 10.755 17.7832C8.57298 22.5835 7.15469 27.7112 6.9365 32.9479C6.7183 39.0575 8.35478 44.8397 10.6459 50.4038C12.5005 55.3132 15.1189 59.3499 18.8283 62.4047Z" fill="black"/>
<path d="M63.2314 73.424C64.6496 73.2058 65.8497 72.7694 66.8316 72.333C67.7044 71.8966 68.359 71.5693 68.359 71.5693C68.359 71.5693 67.8135 71.3511 66.8316 71.0238C65.9588 70.6965 64.7587 70.3692 63.4495 70.0419C62.1403 69.7146 60.8312 69.4964 59.6311 69.6055C58.9765 69.6055 58.431 69.7146 57.8855 69.9328C57.34 70.151 56.7945 70.4783 56.249 70.9147C56.5763 72.2239 57.7764 72.9876 59.0856 73.3149C60.2857 73.7513 61.8131 73.6422 63.2314 73.424Z" fill="black"/>
<path d="M56.3579 68.9505C56.9034 68.8414 57.4489 68.6232 57.8853 68.1868C58.8672 67.5322 59.5218 66.4412 60.0673 65.3503C60.6128 64.2593 60.8309 63.0592 60.94 62.2955C61.0491 61.8591 61.0491 61.5318 61.0491 61.3136C61.0491 61.0954 61.0491 60.8772 61.0491 60.8772C61.0491 60.8772 60.6127 61.0954 59.9582 61.5318C59.3036 61.9682 58.4308 62.5137 57.6671 63.1683C56.7943 63.8229 56.0306 64.5866 55.4851 65.5685C54.9396 66.4413 54.6123 67.5322 54.6123 68.8414C55.2669 68.9505 55.8124 69.0596 56.3579 68.9505Z" fill="black"/>
<path d="M72.5059 64.0416C71.1967 64.0416 69.8875 64.1507 68.6874 64.478C67.5964 64.8053 66.6146 65.4599 65.96 66.5509C66.7237 67.6419 67.8146 68.0783 69.1238 68.1874C70.433 68.2965 71.7422 67.8601 73.0514 67.3146C74.3606 66.7691 75.4516 65.8963 76.3244 65.2417C76.7608 64.9144 77.0881 64.5871 77.3063 64.3689C77.5245 64.1507 77.6335 64.0416 77.6335 64.0416C77.6335 64.0416 76.979 64.0416 75.9971 64.0416C75.1243 64.0416 73.8151 64.0416 72.5059 64.0416Z" fill="black"/>
<path d="M63.778 64.6958C64.978 64.8049 66.069 64.1503 66.7236 63.2775C67.4873 62.4047 67.8146 61.2047 68.0328 60.0046C68.251 58.8045 68.1419 57.7135 68.0328 56.8407C67.9237 56.4043 67.9237 56.077 67.8146 55.8588C67.7055 55.6406 67.7055 55.5315 67.7055 55.5315C67.7055 55.5315 67.5964 55.6406 67.4873 55.7497C67.3782 55.8588 67.16 56.077 66.9418 56.4043C66.5054 56.9498 65.8508 57.6044 65.1962 58.4772C64.5416 59.35 63.9961 60.3319 63.6688 61.4229C63.3415 62.2956 63.3416 63.4957 63.778 64.6958Z" fill="black"/>
<path d="M81.0153 58.2591C81.1244 58.15 81.2335 57.9318 81.4517 57.8227L81.6699 57.6045L81.779 57.3863C81.9972 57.1681 82.1063 56.8408 82.3245 56.6226C82.6518 56.0771 82.9791 55.6407 83.1973 55.2043C83.4155 54.7679 83.6336 54.4406 83.7427 54.2224C83.8518 54.0042 83.961 53.786 83.961 53.786C83.961 53.786 83.4155 54.0042 82.4336 54.2224C81.5608 54.5497 80.3607 54.877 79.2697 55.4225C78.9424 55.5316 78.7242 55.7498 78.3969 55.8589C78.0696 56.0771 77.8514 56.1862 77.5241 56.4044C77.1968 56.6226 76.9786 56.7317 76.6513 56.9499C76.4331 57.1681 76.1058 57.2772 75.8876 57.4954C74.9057 58.2591 74.2511 59.1319 73.9238 60.332C75.0148 61.0957 76.2149 61.2047 77.5241 60.8775C78.6151 60.4411 79.9243 59.4592 81.0153 58.2591Z" fill="black"/>
<path d="M73.3782 52.9136C73.0509 51.7135 72.6145 50.7316 72.1781 49.9679C71.9599 49.5315 71.8508 49.3133 71.6326 49.0951C71.5235 48.8769 71.4144 48.7678 71.4144 48.7678C71.4144 48.7678 71.4144 48.8769 71.3053 49.0951C71.1962 49.3133 71.0871 49.6406 70.978 49.9679C70.8689 50.2952 70.6507 50.7316 70.5416 51.2771C70.4325 51.7135 70.2143 52.3681 70.2143 52.6954C70.1052 53.5682 69.9961 54.5501 69.9961 55.6411C70.1052 56.7321 70.3234 57.823 71.1962 58.8049C72.3963 58.4776 73.16 57.6049 73.4873 56.5139C73.5964 56.1866 73.5964 55.9684 73.7055 55.6411C73.7055 55.3138 73.7055 55.0956 73.7055 54.7683C73.7055 54.441 73.5964 54.2228 73.5964 53.8955C73.4873 53.5682 73.3782 53.2409 73.3782 52.9136Z" fill="black"/>
<path d="M86.6885 43.7489C86.7976 43.4216 86.7976 43.3125 86.7976 43.3125C86.7976 43.3125 86.2521 43.6398 85.3793 44.0762C84.5065 44.5126 83.5247 45.1672 82.4337 45.9309C81.3427 46.6946 80.3608 47.4583 79.7062 48.4402C79.5971 48.6584 79.3789 48.8766 79.2698 49.2039C79.1607 49.4221 79.0516 49.7494 78.9425 49.9676C78.7243 50.513 78.7243 51.0585 78.8334 51.7131C80.1426 52.0404 81.2336 51.8222 82.3246 51.1676C82.5428 50.9494 82.87 50.8403 83.0882 50.6221C83.3064 50.4039 83.5246 50.1858 83.7428 49.9676C84.1792 49.4221 84.5065 48.8766 84.9429 48.3311C85.7066 47.2401 86.143 45.9309 86.4703 45.0581C86.4703 44.4035 86.5794 43.9671 86.6885 43.7489Z" fill="black"/>
<path d="M75.6699 50.5131C76.2154 50.1858 76.5427 49.7494 76.7609 49.204C76.87 48.9858 76.979 48.6584 77.0881 48.4402C77.1972 48.222 77.1972 47.8948 77.1972 47.5675C77.1972 46.3674 76.87 45.1673 76.3245 44.0763C75.779 42.9853 75.1244 42.0034 74.5789 41.3488C74.3607 41.0215 74.0334 40.8033 73.9243 40.5851C73.7061 40.3669 73.597 40.2578 73.597 40.2578C73.597 40.2578 73.597 40.3669 73.4879 40.5851C73.4879 40.8033 73.3788 41.1306 73.2697 41.4579C73.1606 42.2216 73.0515 43.2035 72.9424 44.2945C72.9424 44.84 72.9424 45.3855 73.0515 45.931C73.0515 46.0401 73.0515 46.2583 73.1606 46.3674C73.1606 46.4765 73.1606 46.6947 73.2697 46.8038C73.2697 47.1311 73.3788 47.3493 73.4879 47.5675C73.9243 48.8767 74.5789 49.8585 75.6699 50.5131Z" fill="black"/>
<path d="M83.8513 35.7843C83.6331 36.0025 83.4149 36.2207 83.1967 36.5479C82.9785 36.7661 82.7603 37.0934 82.6512 37.3116C82.2148 37.8571 81.8875 38.2935 81.6693 38.839C81.5602 39.0572 81.4512 39.3845 81.3421 39.6027C81.233 39.8209 81.233 40.1482 81.1239 40.4755C81.0148 41.021 81.1239 41.5665 81.3421 42.2211C82.6513 42.3302 83.7422 41.8938 84.615 41.021C84.8332 40.8028 85.0514 40.5846 85.2696 40.2573C85.4878 40.0391 85.5969 39.7118 85.8151 39.3845C86.1424 38.839 86.3606 38.1844 86.6879 37.5298C86.797 37.2025 86.9061 36.8752 87.0152 36.5479C87.1243 36.2207 87.1243 35.8934 87.2334 35.5661C87.3425 34.9115 87.4516 34.366 87.4516 33.9296C87.5607 32.9477 87.4516 32.2931 87.4516 32.2931C87.4516 32.2931 87.0152 32.7295 86.2515 33.3841C85.5969 33.9296 84.7241 34.8024 83.8513 35.7843Z" fill="black"/>
<path d="M79.1611 39.9303C79.2702 39.7121 79.2702 39.3848 79.2702 39.1666C79.2702 38.8393 79.2702 38.6212 79.1611 38.2939C79.052 37.7484 78.8338 37.2029 78.6156 36.6574C78.5065 36.5483 78.5065 36.4392 78.3974 36.221C78.2883 36.1119 78.1792 36.0028 78.1792 35.7846C77.961 35.5664 77.8519 35.2391 77.6337 35.0209C77.3064 34.5845 76.8701 34.1481 76.4337 33.8208C76.2155 33.6026 75.9973 33.4935 75.8882 33.2753C75.67 33.1662 75.5609 32.948 75.3427 32.8389C74.6881 32.2934 74.1426 32.0752 74.1426 32.0752C74.1426 32.0752 74.1426 32.5116 74.2517 33.2753C74.2517 33.4935 74.2517 33.6026 74.2517 33.8208C74.2517 34.039 74.2517 34.2572 74.3608 34.4754C74.3608 34.9118 74.4699 35.4573 74.579 36.0028C74.6881 36.5483 74.7972 37.0938 75.0154 37.5302C75.1245 37.7483 75.2336 38.0757 75.3427 38.2939C75.4518 38.5121 75.5609 38.8393 75.67 39.0575C76.2155 40.0394 77.0882 40.8031 78.2883 41.2395C78.7247 41.0213 78.9429 40.4758 79.1611 39.9303Z" fill="black"/>
<path d="M81.4521 29.1292C81.343 29.6747 81.2339 30.2202 81.343 30.7657C81.343 31.093 81.4521 31.3112 81.5612 31.5294C81.6703 31.7476 81.7794 32.0749 81.9976 32.2931C83.3068 32.0749 84.2887 31.3112 84.9433 30.3293C85.2706 29.7838 85.4888 29.1292 85.707 28.5837C85.9252 27.9291 85.9252 27.2745 86.0343 26.6199C86.0343 26.2926 86.0343 25.9653 86.0343 25.638C86.0343 25.3107 86.0343 24.9835 86.0343 24.6562C86.0343 24.0016 85.9252 23.4561 85.8161 23.0197C85.5979 22.0378 85.4888 21.3832 85.4888 21.3832C85.4888 21.3832 85.1615 21.9287 84.616 22.6924C84.3978 23.1288 84.0705 23.5652 83.7432 24.1107C83.4159 24.6562 83.0886 25.2017 82.8704 25.7472C82.5431 26.2926 82.3249 26.8381 81.9976 27.4927C81.7794 27.9291 81.5612 28.4746 81.4521 29.1292Z" fill="black"/>
<path d="M78.942 28.9113C78.7238 28.3658 78.3965 27.9294 77.9601 27.493C77.7419 27.2748 77.5237 27.0566 77.3055 26.8384C77.0873 26.6202 76.8691 26.402 76.6509 26.2929C75.669 25.6383 74.6871 25.0928 73.9234 24.7655C73.1597 24.4382 72.6143 24.3291 72.6143 24.3291C72.6143 24.3291 72.7233 24.7655 72.9415 25.4201C73.0506 25.7474 73.1597 26.1838 73.3779 26.6202C73.487 26.8384 73.5961 27.0566 73.7052 27.2748C73.8143 27.493 73.9234 27.7112 74.0325 27.9294C74.2507 28.3658 74.4689 28.8022 74.7962 29.3477C75.1235 29.784 75.4508 30.2205 75.7781 30.6569C76.5418 31.4205 77.5237 32.0751 78.8329 32.1842C79.0511 31.966 79.1602 31.6387 79.1602 31.4205C79.2693 31.2023 79.2693 30.8751 79.2693 30.6569C79.2693 30.0023 79.1602 29.4568 78.942 28.9113Z" fill="black"/>
<path d="M80.7968 11.4551C80.7968 11.4551 80.5786 12.0006 80.2513 12.8734C79.924 13.7462 79.5967 14.9463 79.2694 16.1463C79.1603 16.8009 79.0512 17.3464 78.9421 18.001C78.833 18.6556 78.833 19.2011 78.833 19.8557C78.833 20.183 78.833 20.4012 78.9421 20.7285C78.9421 21.0558 79.0512 21.274 79.1603 21.4922C79.2694 21.7104 79.3785 22.0377 79.5967 22.2559C79.7058 22.4741 79.924 22.6923 80.1422 22.9105C80.7968 22.6923 81.2332 22.2559 81.6696 21.8195C82.106 21.3831 82.3242 20.8376 82.5424 20.183C82.6515 19.8557 82.6515 19.5284 82.7606 19.2011C82.7606 18.8738 82.8697 18.5465 82.8697 18.2192C82.8697 17.5646 82.7606 16.91 82.6515 16.2554C82.4333 14.9463 81.9969 13.7462 81.5605 12.8734C81.3423 12.437 81.2332 12.1097 81.015 11.7824C80.7968 11.5642 80.7968 11.4551 80.7968 11.4551Z" fill="black"/>
<path d="M76.8701 20.6191C76.761 20.4009 76.6519 20.1827 76.4337 19.9645C76.1064 19.5281 75.67 19.2008 75.1245 18.8735C74.6881 18.5462 74.0335 18.328 73.488 18.1098C73.1607 18.0007 72.9425 17.8917 72.7243 17.7826C72.5061 17.6735 72.1788 17.6735 71.9606 17.5644C71.4151 17.4553 70.9787 17.3462 70.5423 17.3462C70.1059 17.3462 69.7786 17.2371 69.5604 17.2371C69.3422 17.2371 69.124 17.2371 69.124 17.2371C69.124 17.2371 69.2331 17.3462 69.3422 17.5644C69.4513 17.7826 69.5604 18.0008 69.7786 18.3281C69.8877 18.4372 69.9968 18.6553 70.1059 18.7644C70.215 18.8735 70.215 18.9826 70.3241 18.9826C70.4332 19.0917 70.4332 19.2008 70.5423 19.3099C70.7605 19.6372 71.0878 20.0736 71.4151 20.51C71.7424 20.9464 72.0697 21.2737 72.5061 21.601C72.6152 21.7101 72.7243 21.8192 72.8334 21.8192C72.9425 21.9283 73.0516 22.0374 73.1607 22.0374C73.3789 22.1465 73.5971 22.3647 73.8153 22.4738C74.2517 22.692 74.7972 22.9102 75.3427 23.1284C75.8882 23.2375 76.5427 23.2375 77.0882 23.1284C77.1973 22.8011 77.1973 22.5829 77.1973 22.2556C77.1973 21.9283 77.1973 21.7101 77.0882 21.4919C77.0882 21.1646 76.9792 20.9464 76.8701 20.6191Z" fill="black"/>
<path d="M75.9959 14.1828C77.0869 13.4191 77.5233 12.3281 77.6323 11.0189C77.6323 10.3643 77.6324 9.81883 77.4142 9.16424C77.3051 8.50964 77.0869 7.85504 76.7596 7.30955C76.5414 6.65495 76.2141 6.10946 75.8868 5.56396C75.5595 5.01847 75.2322 4.58207 75.014 4.25478C74.6867 3.81838 74.4685 3.60018 74.2503 3.38198C74.0321 3.16378 73.923 3.05469 73.923 3.05469C73.923 3.05469 73.8139 3.70928 73.7048 4.58207C73.7048 5.01846 73.5957 5.56396 73.5957 6.21855C73.5957 6.54585 73.5957 6.76405 73.5957 7.09135C73.5957 7.41865 73.5957 7.74595 73.5957 8.07324C73.5957 9.38243 73.5957 10.5825 73.923 11.6735C74.0321 12.219 74.3594 12.7645 74.6867 13.2009C75.014 13.5282 75.4504 13.8555 75.9959 14.1828Z" fill="black"/>
<path d="M71.7409 12.0005C70.8681 11.3459 69.668 10.9095 68.4679 10.8004C67.9224 10.6913 67.2678 10.6913 66.7223 10.6913C66.1768 10.6913 65.7404 10.6913 65.304 10.8004C64.4312 10.9095 63.8857 11.0186 63.8857 11.0186C63.8857 11.0186 63.9948 11.1277 64.1039 11.2368C64.213 11.3459 64.4312 11.5641 64.7585 11.8914C64.9767 12.1096 65.304 12.4369 65.7404 12.7642C66.0677 13.0915 66.5041 13.4188 66.9405 13.7461C67.3769 14.0734 67.8133 14.4007 68.2497 14.6189C68.6861 14.837 69.2316 15.0552 69.7771 15.2734C70.8681 15.6007 71.9591 15.6007 73.1592 15.0552C73.1592 14.5098 73.05 13.9643 72.8318 13.4188C72.5046 12.7642 72.1773 12.3278 71.7409 12.0005Z" fill="black"/>
<path d="M25.0703 33.51L24.5703 30.93H24.5503L24.0503 33.51H25.0703ZM22.5503 36L24.1403 28.88H24.9903L26.5803 36H25.5603L25.2603 34.47H23.8703L23.5703 36H22.5503ZM30.3225 33.97V34.41C30.3225 34.63 30.2792 34.84 30.1925 35.04C30.1125 35.2333 29.9992 35.4067 29.8525 35.56C29.7059 35.7133 29.5325 35.8367 29.3325 35.93C29.1392 36.0167 28.9292 36.06 28.7025 36.06C28.5092 36.06 28.3125 36.0333 28.1125 35.98C27.9125 35.9267 27.7325 35.8333 27.5725 35.7C27.4125 35.5667 27.2792 35.3967 27.1725 35.19C27.0725 34.9767 27.0225 34.7067 27.0225 34.38V30.46C27.0225 30.2267 27.0625 30.01 27.1425 29.81C27.2225 29.61 27.3359 29.4367 27.4825 29.29C27.6292 29.1433 27.8025 29.03 28.0025 28.95C28.2092 28.8633 28.4359 28.82 28.6825 28.82C29.1625 28.82 29.5525 28.9767 29.8525 29.29C29.9992 29.4433 30.1125 29.6267 30.1925 29.84C30.2792 30.0467 30.3225 30.2733 30.3225 30.52V30.92H29.3025V30.58C29.3025 30.38 29.2459 30.2067 29.1325 30.06C29.0192 29.9133 28.8659 29.84 28.6725 29.84C28.4192 29.84 28.2492 29.92 28.1625 30.08C28.0825 30.2333 28.0425 30.43 28.0425 30.67V34.31C28.0425 34.5167 28.0859 34.69 28.1725 34.83C28.2659 34.97 28.4292 35.04 28.6625 35.04C28.7292 35.04 28.7992 35.03 28.8725 35.01C28.9525 34.9833 29.0259 34.9433 29.0925 34.89C29.1525 34.8367 29.2025 34.7633 29.2425 34.67C29.2825 34.5767 29.3025 34.46 29.3025 34.32V33.97H30.3225ZM31.1548 36V28.88H32.1748V31.93H33.4348V28.88H34.4548V36H33.4348V32.83H32.1748V36H31.1548ZM35.4426 36V28.88H36.4626V36H35.4426ZM37.4536 36V28.88H40.4936V29.84H38.4736V31.93H40.2336V32.89H38.4736V34.98H40.4936V36H37.4536ZM44.6148 28.88L43.1548 36H42.2548L40.8048 28.88H41.8848L42.6948 33.85H42.7148L43.5348 28.88H44.6148ZM45.2271 36V28.88H48.2671V29.84H46.2471V31.93H48.0071V32.89H46.2471V34.98H48.2671V36H45.2271ZM48.9282 36V28.88H49.9082L51.2182 32.65H51.2382L52.5382 28.88H53.5282V36H52.5082V31.67H52.4882L51.4782 34.73H50.9682L49.9682 31.67H49.9482V36H48.9282ZM54.4849 36V28.88H57.5249V29.84H55.5049V31.93H57.2649V32.89H55.5049V34.98H57.5249V36H54.4849ZM58.1461 36V28.88H59.1261L60.6661 33.17H60.6861V28.88H61.7061V36H60.7461L59.1861 31.72H59.1661V36H58.1461ZM63.2994 36V29.84H62.1194V28.88H65.4994V29.84H64.3194V36H63.2994Z" fill="black"/>
<path d="M25.1826 42.51L24.6826 39.93H24.6626L24.1626 42.51H25.1826ZM22.6626 45L24.2526 37.88H25.1026L26.6926 45H25.6726L25.3726 43.47H23.9826L23.6826 45H22.6626ZM32.1138 37.88L31.0538 45H30.0938L29.3138 40.38H29.2938L28.5238 45H27.5638L26.5038 37.88H27.5838L28.0938 42.4H28.1138L28.9137 37.88H29.6938L30.5238 42.51H30.5438L31.0338 37.88H32.1138ZM34.5088 42.51L34.0088 39.93H33.9888L33.4888 42.51H34.5088ZM31.9888 45L33.5788 37.88H34.4288L36.0188 45H34.9988L34.6988 43.47H33.3088L33.0088 45H31.9888ZM37.541 38.84V41.06H38.121C38.301 41.06 38.4443 41.0367 38.551 40.99C38.6577 40.9367 38.741 40.8633 38.801 40.77C38.8543 40.6767 38.891 40.5633 38.911 40.43C38.931 40.29 38.941 40.13 38.941 39.95C38.941 39.77 38.931 39.6133 38.911 39.48C38.891 39.34 38.851 39.22 38.791 39.12C38.6643 38.9333 38.4243 38.84 38.071 38.84H37.541ZM36.521 45V37.88H38.161C39.361 37.88 39.961 38.5767 39.961 39.97C39.961 40.39 39.8943 40.7467 39.761 41.04C39.6343 41.3333 39.4077 41.57 39.081 41.75L40.181 45H39.101L38.151 41.96H37.541V45H36.521ZM40.7788 45V37.88H42.2888C42.8755 37.88 43.3188 38.04 43.6188 38.36C43.9255 38.68 44.0788 39.1333 44.0788 39.72V43.05C44.0788 43.7167 43.9155 44.21 43.5888 44.53C43.2688 44.8433 42.8055 45 42.1988 45H40.7788ZM41.7988 38.84V44.04H42.2688C42.5555 44.04 42.7588 43.97 42.8788 43.83C42.9988 43.6833 43.0588 43.4567 43.0588 43.15V39.72C43.0588 39.44 43.0022 39.2233 42.8888 39.07C42.7755 38.9167 42.5688 38.84 42.2688 38.84H41.7988ZM48.3366 39.93H47.3166V39.7C47.3166 39.4667 47.26 39.2667 47.1466 39.1C47.04 38.9267 46.8566 38.84 46.5966 38.84C46.4566 38.84 46.3433 38.8667 46.2566 38.92C46.17 38.9733 46.1 39.04 46.0466 39.12C45.9933 39.2067 45.9566 39.3067 45.9366 39.42C45.9166 39.5267 45.9066 39.64 45.9066 39.76C45.9066 39.9 45.91 40.0167 45.9166 40.11C45.93 40.2033 45.9566 40.2867 45.9966 40.36C46.0366 40.4333 46.0933 40.4967 46.1666 40.55C46.2466 40.6033 46.3533 40.6567 46.4866 40.71L47.2666 41.02C47.4933 41.1067 47.6766 41.21 47.8166 41.33C47.9566 41.4433 48.0666 41.5767 48.1466 41.73C48.22 41.89 48.27 42.0733 48.2966 42.28C48.3233 42.48 48.3366 42.71 48.3366 42.97C48.3366 43.27 48.3066 43.55 48.2466 43.81C48.1866 44.0633 48.09 44.28 47.9566 44.46C47.8166 44.6467 47.6333 44.7933 47.4066 44.9C47.18 45.0067 46.9033 45.06 46.5766 45.06C46.33 45.06 46.1 45.0167 45.8866 44.93C45.6733 44.8433 45.49 44.7233 45.3366 44.57C45.1833 44.4167 45.06 44.24 44.9666 44.04C44.88 43.8333 44.8366 43.61 44.8366 43.37V42.99H45.8566V43.31C45.8566 43.4967 45.91 43.6667 46.0166 43.82C46.13 43.9667 46.3166 44.04 46.5766 44.04C46.75 44.04 46.8833 44.0167 46.9766 43.97C47.0766 43.9167 47.1533 43.8433 47.2066 43.75C47.26 43.6567 47.29 43.5467 47.2966 43.42C47.31 43.2867 47.3166 43.14 47.3166 42.98C47.3166 42.7933 47.31 42.64 47.2966 42.52C47.2833 42.4 47.2566 42.3033 47.2166 42.23C47.17 42.1567 47.1066 42.0967 47.0266 42.05C46.9533 42.0033 46.8533 41.9533 46.7266 41.9L45.9966 41.6C45.5566 41.42 45.26 41.1833 45.1066 40.89C44.96 40.59 44.8866 40.2167 44.8866 39.77C44.8866 39.5033 44.9233 39.25 44.9966 39.01C45.07 38.77 45.18 38.5633 45.3266 38.39C45.4666 38.2167 45.6433 38.08 45.8566 37.98C46.0766 37.8733 46.3366 37.82 46.6366 37.82C46.89 37.82 47.12 37.8667 47.3266 37.96C47.54 38.0533 47.7233 38.1767 47.8766 38.33C48.1833 38.65 48.3366 39.0167 48.3366 39.43V39.93ZM50.8146 45V44.04L52.6546 40.57C52.7479 40.3967 52.8013 40.2467 52.8146 40.12C52.8279 39.9867 52.8346 39.8233 52.8346 39.63C52.8346 39.5433 52.8313 39.4533 52.8246 39.36C52.8246 39.26 52.8079 39.1733 52.7746 39.1C52.7413 39.0267 52.6913 38.9667 52.6246 38.92C52.5579 38.8667 52.4613 38.84 52.3346 38.84C52.1813 38.84 52.0579 38.8833 51.9646 38.97C51.8779 39.0567 51.8346 39.1833 51.8346 39.35V39.93H50.8146V39.37C50.8146 39.1567 50.8546 38.9567 50.9346 38.77C51.0146 38.5833 51.1246 38.42 51.2646 38.28C51.3979 38.14 51.5579 38.03 51.7446 37.95C51.9313 37.8633 52.1313 37.82 52.3446 37.82C52.6113 37.82 52.8379 37.87 53.0246 37.97C53.2179 38.0633 53.3779 38.1933 53.5046 38.36C53.6246 38.5267 53.7113 38.7167 53.7646 38.93C53.8246 39.1433 53.8546 39.37 53.8546 39.61C53.8546 39.7833 53.8513 39.93 53.8446 40.05C53.8379 40.1633 53.8246 40.2733 53.8046 40.38C53.7846 40.4867 53.7513 40.5933 53.7046 40.7C53.6579 40.8067 53.5946 40.9367 53.5146 41.09L52.0146 43.98H53.8546V45H50.8146ZM54.5353 39.35C54.5353 39.11 54.5753 38.8967 54.6553 38.71C54.742 38.5233 54.8553 38.3633 54.9953 38.23C55.1353 38.0967 55.2953 37.9967 55.4753 37.93C55.662 37.8567 55.8553 37.82 56.0553 37.82C56.2553 37.82 56.4453 37.8567 56.6253 37.93C56.812 37.9967 56.9753 38.0967 57.1153 38.23C57.2553 38.3633 57.3653 38.5233 57.4453 38.71C57.532 38.8967 57.5753 39.11 57.5753 39.35V43.53C57.5753 43.77 57.532 43.9833 57.4453 44.17C57.3653 44.3567 57.2553 44.5167 57.1153 44.65C56.9753 44.7833 56.812 44.8867 56.6253 44.96C56.4453 45.0267 56.2553 45.06 56.0553 45.06C55.8553 45.06 55.662 45.0267 55.4753 44.96C55.2953 44.8867 55.1353 44.7833 54.9953 44.65C54.8553 44.5167 54.742 44.3567 54.6553 44.17C54.5753 43.9833 54.5353 43.77 54.5353 43.53V39.35ZM55.5553 43.53C55.5553 43.6767 55.602 43.8 55.6953 43.9C55.7886 43.9933 55.9086 44.04 56.0553 44.04C56.202 44.04 56.322 43.9933 56.4153 43.9C56.5086 43.8 56.5553 43.6767 56.5553 43.53V39.35C56.5553 39.2033 56.5086 39.0833 56.4153 38.99C56.322 38.89 56.202 38.84 56.0553 38.84C55.9086 38.84 55.7886 38.89 55.6953 38.99C55.602 39.0833 55.5553 39.2033 55.5553 39.35V43.53ZM59.466 45V38.96L58.446 39.71V38.63L59.466 37.88H60.486V45H59.466ZM65.0167 37.88V38.84H62.9967V40.76C63.0901 40.6667 63.2101 40.59 63.3567 40.53C63.5034 40.4633 63.6667 40.43 63.8467 40.43C64.1934 40.43 64.4734 40.5367 64.6867 40.75C64.9067 40.9567 65.0167 41.27 65.0167 41.69V43.53C65.0167 43.77 64.9734 43.9833 64.8867 44.17C64.8067 44.3567 64.6967 44.5167 64.5567 44.65C64.4167 44.7833 64.2534 44.8867 64.0667 44.96C63.8867 45.0267 63.6967 45.06 63.4967 45.06C63.2967 45.06 63.1034 45.0267 62.9167 44.96C62.7367 44.8867 62.5767 44.7833 62.4367 44.65C62.2967 44.5167 62.1834 44.3567 62.0967 44.17C62.0167 43.9833 61.9767 43.77 61.9767 43.53V43.23H62.9967V43.49C62.9967 43.6633 63.0434 43.8 63.1367 43.9C63.2367 43.9933 63.3634 44.04 63.5167 44.04C63.6701 44.04 63.7867 43.9933 63.8667 43.9C63.9534 43.8067 63.9967 43.6767 63.9967 43.51V41.84C63.9967 41.7 63.9501 41.58 63.8567 41.48C63.7701 41.38 63.6567 41.33 63.5167 41.33C63.4301 41.33 63.3567 41.3467 63.2967 41.38C63.2367 41.4067 63.1867 41.44 63.1467 41.48C63.1067 41.52 63.0767 41.5633 63.0567 41.61C63.0234 41.67 63.0034 41.7067 62.9967 41.72H62.0967V37.88H65.0167Z" fill="black"/>
</svg>
