<svg width="150" height="50" viewBox="0 0 150 50" fill="none" xmlns="http://www.w3.org/2000/svg">
<g clip-path="url(#clip0_0_1791)">
<path d="M9.8502 25.5197L9.32303 23.6523H5.1301L4.6002 25.5197H0.507812L5.11107 12.2088H9.4426L13.9426 25.5197H9.8502ZM7.26053 15.998L5.94803 20.6937H8.54042L7.26053 15.998Z" fill="#1C75BC"/>
<path d="M14.7793 25.5199V12.209H18.5999V25.5199H14.7793Z" fill="#1C75BC"/>
<path d="M27.3776 25.5197L25.0407 20.824H23.932V25.5197H20.1113V12.2088H26.6249C26.9673 12.2088 27.3233 12.2278 27.6657 12.2658C28.1956 12.3228 29.7282 12.4721 30.5977 14.0762C30.8015 14.4725 31.1602 15.3031 31.1602 16.4702C31.1602 17.7324 30.7173 18.8832 29.7445 19.5998C29.489 19.7871 29.2662 19.9011 28.6874 20.1454L31.6385 25.5197H27.3749H27.3776ZM27.1222 15.6017C27.0026 15.4144 26.8314 15.3004 26.7635 15.2624C26.3722 15.0181 25.9293 14.9991 25.4836 14.9991H23.932V18.0907H25.5162C26.2146 18.0907 26.9999 17.9957 27.2717 17.1298C27.288 17.0538 27.3559 16.8095 27.3559 16.5462C27.3559 16.226 27.2717 15.8677 27.1168 15.6044L27.1222 15.6017Z" fill="#1C75BC"/>
<path d="M35.9728 15.132V17.526H41.3261V20.4113H35.9728V25.5223H32.1875V12.2114H41.7011V15.1347H35.9728V15.132Z" fill="#1C75BC"/>
<path d="M42.8418 25.5197V12.2088H46.6624V25.5197H42.8418Z" fill="#1C75BC"/>
<path d="M55.6979 25.5197L51.6925 17.7894L51.7278 25.5197H48.1816V12.2088H52.2224L56.2958 19.9581L56.2441 12.2088H59.8066V25.5197H55.6979Z" fill="#1C75BC"/>
<path d="M69.899 25.5197L69.3719 23.6523H65.1789L64.649 25.5197H60.5566L65.1599 12.2088H69.4914L73.9914 25.5197H69.899ZM67.3094 15.998L65.9969 20.6937H68.5892L67.3094 15.998Z" fill="#1C75BC"/>
<path d="M82.3444 25.5199L78.339 17.7896L78.3743 25.5199H74.8281V12.209H78.8689L82.9423 19.9583L82.8906 12.209H86.4531V25.5199H82.3444Z" fill="#1C75BC"/>
<path d="M98.8513 23.6712C98.1366 24.5778 96.6013 25.935 93.9247 25.935C92.3894 25.935 91.0252 25.5197 89.8513 24.4068C87.8377 22.5394 87.6855 19.8821 87.6855 18.9402C87.6855 18.1287 87.7698 16.2829 88.9301 14.4915C90.585 11.9075 92.8866 11.7202 93.9437 11.7202C96.6883 11.7202 98.3241 13.3026 98.9899 14.1522C99.3486 14.6055 99.5198 14.9258 99.7752 15.4334L96.585 17.1868C96.5334 17.0538 96.4654 16.9235 96.4165 16.7905C96.2127 16.3372 95.6149 14.9611 94.0796 14.9801C93.3812 14.9801 92.9383 15.2624 92.6991 15.4524C91.5062 16.4322 91.5578 18.3567 91.5578 18.6959C91.5578 20.5254 92.0877 21.5052 92.6665 22.0155C93.2616 22.5258 93.8078 22.5421 94.0986 22.5421C95.4111 22.5421 96.0252 21.5622 96.2644 21.109C96.3486 20.9217 96.4192 20.7507 96.5361 20.3544L99.7915 22.0888C99.3649 22.9547 99.1448 23.2967 98.854 23.6712H98.8513Z" fill="#1C75BC"/>
<path d="M100.758 25.5197V12.2088H110.29V15.1321H104.578V17.1108H109.915V19.9961H104.562V22.6371H110.801V25.5224H100.758V25.5197Z" fill="#1C75BC"/>
<path d="M35.873 8.60699V0.64325H36.5578V8.60699H35.873Z" fill="#1C75BC"/>
<path d="M43.1096 8.60705L38.8868 1.72631V8.60705H38.2129V0.643311H38.8868L43.1613 7.45619L43.1096 0.643311H43.7835V8.60705H43.1096Z" fill="#1C75BC"/>
<path d="M47.7128 1.30825V8.60699H47.028V1.30825H44.7617V0.64325H49.9845V1.30825H47.7101H47.7128Z" fill="#1C75BC"/>
<path d="M50.9707 8.60705V0.643311H55.6745V1.33003H51.6555V4.17461H55.2968V4.87489H51.6555V7.90947H55.9299V8.60976H50.9707V8.60705Z" fill="#1C75BC"/>
<path d="M61.7881 8.60683L59.5137 5.07554H57.8316V8.60683H57.1387V0.643095H59.1686C59.5653 0.643095 59.9729 0.632238 60.3832 0.653952C60.6686 0.675667 61.6577 0.732667 62.1686 1.71524C62.2718 1.91881 62.443 2.32596 62.443 2.9231C62.443 3.87039 61.9946 4.61682 61.1876 4.90725C60.9838 4.98596 60.7582 5.04296 60.3099 5.07554L62.6468 8.60683H61.7908H61.7881ZM61.5544 1.99481C61.2175 1.37324 60.636 1.31895 60.0544 1.31895H57.8316V4.42139H59.5245C59.7093 4.42139 59.9023 4.42139 60.0952 4.41053C60.6169 4.38882 61.1658 4.35353 61.5137 3.82425C61.6251 3.65596 61.7691 3.37367 61.7691 2.88782C61.7691 2.74124 61.7582 2.35853 61.5544 1.99753V1.99481Z" fill="#1C75BC"/>
<path d="M68.6292 8.60705L64.4063 1.72631V8.60705H63.7324V0.643311H64.4063L68.6808 7.45619L68.6319 0.643311H69.3058V8.60705H68.6319H68.6292Z" fill="#1C75BC"/>
<path d="M75.8656 8.60705L75.0395 6.2049H71.8139L70.9879 8.60705H70.2324L73.1699 0.643311H73.7406L76.6074 8.60705H75.8629H75.8656ZM73.4471 1.52274L72.0395 5.59418H74.8357L73.4471 1.52274Z" fill="#1C75BC"/>
<path d="M78.9308 1.30831V8.60705H78.2487V1.30831H75.9824V0.643311H81.2052V1.30831H78.9308Z" fill="#1C75BC"/>
<path d="M82.1875 8.60705V0.643311H82.8723V8.60705H82.1875Z" fill="#1C75BC"/>
<path d="M89.5956 7.638C89.4516 7.84157 89.0739 8.33829 88.4625 8.59615C88.2369 8.68572 87.8918 8.81058 87.3293 8.81058C86.4924 8.81058 85.8184 8.55 85.2369 7.885C84.7777 7.35572 84.207 6.34057 84.207 4.60342C84.207 4.17456 84.2179 2.57313 85.1663 1.43313C85.3103 1.26484 85.6364 0.89027 86.1554 0.664984C86.3809 0.564555 86.7668 0.439697 87.3293 0.439697C87.8184 0.439697 88.9625 0.507555 89.7369 1.7697C90.0331 2.2447 90.419 3.18113 90.4108 4.57899C90.4108 5.58328 90.1663 6.802 89.5956 7.63529V7.638ZM88.9625 1.91899C88.8809 1.81584 88.6581 1.53627 88.3293 1.34356C88.1554 1.24313 87.8402 1.09656 87.3293 1.09656C85.544 1.09656 84.9326 3.0047 84.9326 4.62785C84.9326 4.91014 84.9434 6.56857 85.8212 7.505C86.2396 7.94472 86.7396 8.13743 87.2994 8.13743C87.9326 8.13743 88.4326 7.93386 88.8483 7.41543C89.6554 6.44643 89.6853 4.86671 89.6853 4.58442C89.6962 4.28042 89.6744 2.87985 88.9597 1.9217L88.9625 1.91899Z" fill="#1C75BC"/>
<path d="M96.6507 8.60705L92.4278 1.72631V8.60705H91.7539V0.643311H92.4278L96.7023 7.45619L96.6507 0.643311H97.3246V8.60705H96.6507Z" fill="#1C75BC"/>
<path d="M103.886 8.60705L103.06 6.2049H99.8374L99.0113 8.60705H98.2559L101.193 0.643311H101.764L104.631 8.60705H103.886ZM101.468 1.52274L100.06 5.59418H102.856L101.468 1.52274Z" fill="#1C75BC"/>
<path d="M105.575 8.60705V0.643311H106.268V7.90947H110.246V8.60976H105.572L105.575 8.60705Z" fill="#1C75BC"/>
<path d="M5.17196 31.4478C5.12033 31.1546 5.01979 30.8941 4.87576 30.6362C4.62033 30.1965 4.17196 29.6645 3.11218 29.6645C2.95729 29.6645 2.43826 29.6536 1.99805 29.9251C1.64207 30.1395 1.36489 30.5005 1.17196 30.8832C0.938264 31.3446 0.712721 31.9879 0.712721 33.1388C0.712721 33.3749 0.712721 33.9178 0.845873 34.5611C0.989895 35.2939 1.41653 36.6945 3.22359 36.6945C3.87576 36.6945 4.37576 36.4692 4.78337 35.8829C5.04968 35.5002 5.1312 35.1935 5.16924 35.0035L5.81326 35.4324C5.45457 36.2901 4.98718 36.7406 4.68011 36.9551C4.40566 37.1478 3.91381 37.3731 3.13935 37.3731C2.74261 37.3731 1.55783 37.3297 0.783373 36.2331C0.00619911 35.1609 -0.00195312 33.5378 -0.00195312 33.2311C-0.00195312 32.8484 -0.00195312 31.1682 0.886634 30.0282C1.23446 29.5776 1.65294 29.3388 1.82413 29.2492C2.06055 29.1352 2.45729 29.0022 3.0687 29.0022C3.46544 29.0022 3.87576 29.0592 4.25348 29.2058C5.09044 29.5206 5.52794 30.1992 5.86489 31.0678L5.17196 31.4532V31.4478Z" fill="#1C75BC"/>
<path d="M16.4843 36.1978C16.3403 36.4014 15.9626 36.8981 15.3511 37.156C15.1256 37.2455 14.7805 37.3704 14.218 37.3704C13.381 37.3704 12.7071 37.1098 12.1256 36.4448C11.6664 35.9155 11.0957 34.9004 11.0957 33.1605C11.0957 32.7317 11.1066 31.1302 12.0549 29.9902C12.199 29.8219 12.5251 29.4474 13.0441 29.2248C13.2696 29.1244 13.6555 28.9995 14.218 28.9995C14.7071 28.9995 15.8511 29.0674 16.6256 30.3295C16.9218 30.8045 17.3104 31.7409 17.2995 33.1388C17.2995 34.1431 17.0549 35.3618 16.4843 36.1978ZM15.8511 30.4761C15.7696 30.3757 15.5468 30.0934 15.218 29.9007C15.0441 29.8002 14.7289 29.6537 14.218 29.6537C12.4327 29.6537 11.8212 31.5618 11.8212 33.185C11.8212 33.4672 11.8321 35.1257 12.7098 36.0621C13.1283 36.5018 13.6283 36.6945 14.1881 36.6945C14.8212 36.6945 15.3212 36.491 15.737 35.9725C16.5441 35.0035 16.574 33.4238 16.574 33.1415C16.5848 32.8375 16.5631 31.4369 15.8484 30.4788L15.8511 30.4761Z" fill="#1C75BC"/>
<path d="M27.5791 37.1666L25.3047 33.6354H23.6226V37.1666H22.9297V29.2029H24.9596C25.3563 29.2029 25.7639 29.1921 26.1743 29.2138C26.4596 29.2355 27.4487 29.2925 27.9596 30.2751C28.0628 30.4786 28.234 30.8858 28.234 31.4829C28.234 32.4302 27.7857 33.1766 26.9786 33.4671C26.7748 33.5458 26.5493 33.6028 26.1009 33.6381L28.4378 37.1694H27.5819L27.5791 37.1666ZM27.3454 30.5573C27.0085 29.9358 26.427 29.8788 25.8454 29.8788H23.6226V32.9812H25.3156C25.5003 32.9812 25.6933 32.9812 25.8862 32.9703C26.4079 32.9486 26.9569 32.9133 27.3047 32.3841C27.4161 32.2158 27.5601 31.9335 27.5601 31.4476C27.5601 31.3011 27.5493 30.9183 27.3454 30.5546V30.5573Z" fill="#1C75BC"/>
<path d="M38.8296 32.824C38.6258 33.1171 38.4111 33.242 38.2997 33.3098C37.7888 33.5812 37.1964 33.5812 36.0551 33.5812H34.4627V37.1695H33.8105V29.2058H36.2807C36.6991 29.2058 37.1176 29.1949 37.547 29.2384C38.047 29.2818 38.4355 29.4094 38.7698 29.8355C38.9627 30.0825 39.2399 30.5792 39.2399 31.3799C39.2399 31.8875 39.1176 32.4059 38.8323 32.824H38.8296ZM38.3703 30.4652C38.0334 29.8572 37.5225 29.8572 36.9627 29.8437C36.7073 29.8437 36.4519 29.8328 36.2073 29.8328H34.4627V32.9135H36.0035C36.3214 32.9135 36.6258 32.9027 36.9328 32.9027C37.4437 32.8918 37.9328 32.8701 38.2807 32.3951C38.4247 32.2024 38.5769 31.9201 38.5769 31.3691C38.5769 31.2334 38.5769 30.8398 38.373 30.4652H38.3703Z" fill="#1C75BC"/>
<path d="M49.5468 36.1978C49.4028 36.4014 49.0251 36.8981 48.4136 37.156C48.1881 37.2455 47.843 37.3704 47.2805 37.3704C46.4435 37.3704 45.7696 37.1098 45.1881 36.4448C44.7289 35.9155 44.1582 34.9004 44.1582 33.1605C44.1582 32.7317 44.1691 31.1302 45.1174 29.9902C45.2615 29.8219 45.5848 29.4474 46.1066 29.2248C46.3321 29.1244 46.718 28.9995 47.2805 28.9995C47.7696 28.9995 48.9136 29.0674 49.6881 30.3295C49.9843 30.8045 50.3729 31.7409 50.362 33.1388C50.362 34.1431 50.1174 35.3618 49.5468 36.1978ZM48.9136 30.4761C48.8321 30.3757 48.6093 30.0934 48.2805 29.9007C48.1066 29.8002 47.7914 29.6537 47.2805 29.6537C45.4952 29.6537 44.8837 31.5618 44.8837 33.185C44.8837 33.4672 44.8946 35.1257 45.7723 36.0621C46.1908 36.5018 46.6908 36.6945 47.2506 36.6945C47.8837 36.6945 48.3837 36.491 48.7995 35.9725C49.6066 35.0035 49.6365 33.4238 49.6365 33.1415C49.6473 32.8375 49.6256 31.4369 48.9109 30.4788L48.9136 30.4761Z" fill="#1C75BC"/>
<path d="M60.6456 37.1666L58.3711 33.6354H56.689V37.1666H55.9961V29.2029H58.026C58.4227 29.2029 58.8303 29.1921 59.2407 29.2138C59.526 29.2355 60.5151 29.2925 61.026 30.2751C61.1292 30.4786 61.3004 30.8858 61.3004 31.4829C61.3004 32.4302 60.8521 33.1766 60.045 33.4671C59.8412 33.5458 59.6157 33.6028 59.1673 33.6381L61.5042 37.1694H60.6483L60.6456 37.1666ZM60.4119 30.5573C60.0749 29.9358 59.4934 29.8788 58.9119 29.8788H56.689V32.9812H58.382C58.5667 32.9812 58.7597 32.9812 58.9526 32.9703C59.4744 32.9486 60.0233 32.9133 60.3711 32.3841C60.4825 32.2158 60.6265 31.9335 60.6265 31.4476C60.6265 31.3011 60.6157 30.9183 60.4119 30.5546V30.5573Z" fill="#1C75BC"/>
<path d="M71.7796 37.1669L70.9535 34.7647H67.728L66.9019 37.1669H66.1465L69.084 29.2031H69.6546L72.5215 37.1669H71.7769H71.7796ZM69.3612 30.0826L67.9536 34.1567H70.7497L69.3612 30.0826Z" fill="#1C75BC"/>
<path d="M79.132 29.8681V37.1669H78.4499V29.8681H76.1836V29.2031H81.4064V29.8681H79.132Z" fill="#1C75BC"/>
<path d="M86.6777 37.1668V29.2031H87.3598V37.1668H86.6777Z" fill="#1C75BC"/>
<path d="M98.3734 36.1978C98.2321 36.4014 97.8516 36.8981 97.243 37.156C97.0174 37.2455 96.6723 37.3704 96.1098 37.3704C95.2728 37.3704 94.6016 37.1098 94.0201 36.4448C93.5609 35.9155 92.9902 34.9004 92.9902 33.1605C92.9902 32.7317 93.0011 31.1302 93.9495 29.9902C94.0935 29.8219 94.4196 29.4474 94.9386 29.2248C95.1641 29.1244 95.55 28.9995 96.1125 28.9995C96.6016 28.9995 97.7457 29.0674 98.5201 30.3295C98.8136 30.8045 99.2022 31.7409 99.1913 33.1388C99.1913 34.1431 98.9468 35.3618 98.3761 36.1978H98.3734ZM97.7402 30.4761C97.6587 30.3757 97.4359 30.0934 97.1071 29.9007C96.9332 29.8002 96.618 29.6537 96.1071 29.6537C94.3218 29.6537 93.7103 31.5618 93.7103 33.185C93.7103 33.4672 93.7212 35.1257 94.5989 36.0621C95.0147 36.5018 95.5174 36.6945 96.0772 36.6945C96.7103 36.6945 97.2103 36.491 97.6261 35.9725C98.4332 35.0035 98.4631 33.4238 98.4631 33.1415C98.4739 32.8375 98.4549 31.4369 97.7402 30.4788V30.4761Z" fill="#1C75BC"/>
<path d="M109.713 37.1669L105.49 30.2861V37.1669H104.816V29.2031H105.49L109.765 36.016L109.713 29.2031H110.387V37.1669H109.713Z" fill="#1C75BC"/>
<path d="M134.158 29.7078C138.751 29.7703 144.052 28.6981 150.001 25.6988V20.5444C148.867 21.3614 142.452 25.7232 134.161 26.2417V29.7105L134.158 29.7078Z" fill="url(#paint0_linear_0_1791)"/>
<path d="M134.157 35.0851C138.749 35.2534 144.048 34.2518 149.999 31.2552V27.6669C148.869 28.3536 142.383 32.0614 134.154 32.0804V35.0824L134.157 35.0851Z" fill="url(#paint1_linear_0_1791)"/>
<path d="M134.158 50H150.001V33.2338C148.859 33.9667 142.381 37.8807 134.161 37.7613V50H134.158Z" fill="url(#paint2_linear_0_1791)"/>
<path d="M149.911 12.4667L134.131 12.3989L134.158 17.7895C138.723 17.4583 143.992 15.9437 149.911 12.4667Z" fill="url(#paint3_linear_0_1791)"/>
<path d="M134.16 20.5175L134.154 23.6091C138.752 23.3811 144.056 21.9642 149.997 18.5632V14.413C148.864 15.2653 142.45 19.8308 134.157 20.5175H134.16Z" fill="url(#paint4_linear_0_1791)"/>
<path d="M134.157 29.7079V26.239C132.66 26.3313 131.097 26.3014 129.494 26.1006V29.241C130.956 29.5179 132.51 29.6862 134.157 29.7079Z" fill="url(#paint5_linear_0_1791)"/>
<path d="M134.158 35.085V32.083C132.653 32.0884 131.09 31.9662 129.492 31.684L129.5 34.4933C130.962 34.8163 132.514 35.0253 134.158 35.085Z" fill="url(#paint6_linear_0_1791)"/>
<path d="M129.498 37.6037L134.142 49.9999L134.161 37.7611C132.637 37.7394 131.12 37.5901 129.498 37.2427V37.6037Z" fill="url(#paint7_linear_0_1791)"/>
<path d="M134.158 17.7732V12.3989L129.5 0.0678711V17.7189C129.5 17.7189 132.742 18.0039 134.158 17.7759V17.7732Z" fill="url(#paint8_linear_0_1791)"/>
<path d="M134.157 23.609L134.163 20.5174C132.66 20.6422 131.1 20.6395 129.494 20.4658V23.4353C130.959 23.6225 132.513 23.6904 134.157 23.609Z" fill="url(#paint9_linear_0_1791)"/>
<path d="M113.686 20.0587C114.55 21.1145 120.066 27.4524 129.495 29.2411V26.1007C124.427 25.4628 118.946 23.1313 113.686 17.7217V20.0587Z" fill="url(#paint10_linear_0_1791)"/>
<path d="M113.686 24.5427C114.55 25.6637 120.066 32.4115 129.501 34.4906L129.493 31.6813C124.354 30.7693 118.84 28.1609 113.686 22.4907V24.5427Z" fill="url(#paint11_linear_0_1791)"/>
<path d="M113.686 26.9829V37.6012H129.498V37.2429C124.376 36.1518 118.819 33.2095 113.686 26.9829Z" fill="url(#paint12_linear_0_1791)"/>
<path d="M129.501 17.7189V0.0678573L113.658 0V9.7986C114.52 10.792 120.036 16.7282 129.501 17.7189Z" fill="url(#paint13_linear_0_1791)"/>
<path d="M129.495 20.4656C124.427 19.9146 118.946 17.6427 113.686 12.2358V15.2867C114.55 16.2801 120.093 22.2434 129.495 23.435V20.4656Z" fill="url(#paint14_linear_0_1791)"/>
</g>
<defs>
<linearGradient id="paint0_linear_0_1791" x1="138.756" y1="27.6694" x2="148.971" y2="22.4295" gradientUnits="userSpaceOnUse">
<stop offset="0.44" stop-color="#27AAE1"/>
<stop offset="1" stop-color="#1C75BC"/>
</linearGradient>
<linearGradient id="paint1_linear_0_1791" x1="140.883" y1="32.2812" x2="151.06" y2="27.0604" gradientUnits="userSpaceOnUse">
<stop offset="0.44" stop-color="#27AAE1"/>
<stop offset="1" stop-color="#1C75BC"/>
</linearGradient>
<linearGradient id="paint2_linear_0_1791" x1="145.552" y1="42.1041" x2="155.892" y2="36.8017" gradientUnits="userSpaceOnUse">
<stop offset="0.44" stop-color="#27AAE1"/>
<stop offset="1" stop-color="#1C75BC"/>
</linearGradient>
<linearGradient id="paint3_linear_0_1791" x1="133.634" y1="16.7689" x2="143.77" y2="11.5725" gradientUnits="userSpaceOnUse">
<stop offset="0.44" stop-color="#27AAE1"/>
<stop offset="1" stop-color="#1C75BC"/>
</linearGradient>
<linearGradient id="paint4_linear_0_1791" x1="136.347" y1="22.5043" x2="146.562" y2="17.2644" gradientUnits="userSpaceOnUse">
<stop offset="0.44" stop-color="#27AAE1"/>
<stop offset="1" stop-color="#1C75BC"/>
</linearGradient>
<linearGradient id="paint5_linear_0_1791" x1="129.494" y1="27.9029" x2="134.16" y2="27.9029" gradientUnits="userSpaceOnUse">
<stop stop-color="#1C75BC"/>
<stop offset="1" stop-color="#2B3990"/>
</linearGradient>
<linearGradient id="paint6_linear_0_1791" x1="129.492" y1="33.3831" x2="134.158" y2="33.3831" gradientUnits="userSpaceOnUse">
<stop stop-color="#1C75BC"/>
<stop offset="1" stop-color="#2B3990"/>
</linearGradient>
<linearGradient id="paint7_linear_0_1791" x1="129.498" y1="43.6213" x2="134.161" y2="43.6213" gradientUnits="userSpaceOnUse">
<stop stop-color="#1C75BC"/>
<stop offset="1" stop-color="#2B3990"/>
</linearGradient>
<linearGradient id="paint8_linear_0_1791" x1="129.5" y1="8.96532" x2="134.158" y2="8.96532" gradientUnits="userSpaceOnUse">
<stop stop-color="#1C75BC"/>
<stop offset="1" stop-color="#2B3990"/>
</linearGradient>
<linearGradient id="paint9_linear_0_1791" x1="-0.000368013" y1="22.0537" x2="134.16" y2="22.0537" gradientUnits="userSpaceOnUse">
<stop stop-color="#1C75BC"/>
<stop offset="1" stop-color="#2B3990"/>
</linearGradient>
<linearGradient id="paint10_linear_0_1791" x1="129.495" y1="23.4814" x2="113.686" y2="23.4814" gradientUnits="userSpaceOnUse">
<stop offset="0.44" stop-color="#27AAE1"/>
<stop offset="1" stop-color="#1C75BC"/>
</linearGradient>
<linearGradient id="paint11_linear_0_1791" x1="129.501" y1="28.492" x2="113.686" y2="28.492" gradientUnits="userSpaceOnUse">
<stop offset="0.44" stop-color="#27AAE1"/>
<stop offset="1" stop-color="#1C75BC"/>
</linearGradient>
<linearGradient id="paint12_linear_0_1791" x1="129.498" y1="32.2921" x2="113.686" y2="32.2921" gradientUnits="userSpaceOnUse">
<stop offset="0.44" stop-color="#27AAE1"/>
<stop offset="1" stop-color="#1C75BC"/>
</linearGradient>
<linearGradient id="paint13_linear_0_1791" x1="129.501" y1="8.85945" x2="113.658" y2="8.85945" gradientUnits="userSpaceOnUse">
<stop offset="0.44" stop-color="#27AAE1"/>
<stop offset="1" stop-color="#1C75BC"/>
</linearGradient>
<linearGradient id="paint14_linear_0_1791" x1="129.495" y1="17.8354" x2="113.686" y2="17.8354" gradientUnits="userSpaceOnUse">
<stop offset="0.44" stop-color="#27AAE1"/>
<stop offset="1" stop-color="#1C75BC"/>
</linearGradient>
<clipPath id="clip0_0_1791">
<rect width="150" height="50" fill="white"/>
</clipPath>
</defs>
</svg>
