<svg width="276" height="92" viewBox="0 0 276 92" fill="none" xmlns="http://www.w3.org/2000/svg">
<g clip-path="url(#clip0_0_294)">
<path d="M18.1246 46.9564L17.1546 43.5203H9.43957L8.46457 46.9564H0.93457L9.40457 22.4644H17.3746L25.6546 46.9564H18.1246ZM13.3596 29.4364L10.9446 38.0765H15.7146L13.3596 29.4364Z" fill="#1C75BC"/>
<path d="M27.1943 46.9564V22.4644H34.2243V46.9564H27.1943Z" fill="#1C75BC"/>
<path d="M50.3749 46.9564L46.0749 38.3163H44.0349V46.9564H37.0049V22.4644H48.9899C49.6199 22.4644 50.2749 22.4993 50.9049 22.5692C51.8799 22.6741 54.6999 22.9488 56.2999 25.9004C56.6749 26.6296 57.3349 28.1579 57.3349 30.3054C57.3349 32.6278 56.5199 34.7453 54.7299 36.0638C54.2599 36.4084 53.8499 36.6182 52.7849 37.0677L58.2149 46.9564H50.3699H50.3749ZM49.9049 28.7072C49.6849 28.3626 49.3699 28.1529 49.2449 28.0829C48.5249 27.6335 47.7099 27.5985 46.8899 27.5985H44.0349V33.287H46.9499C48.2349 33.287 49.6799 33.1122 50.1799 31.519C50.2099 31.3792 50.3349 30.9297 50.3349 30.4452C50.3349 29.8559 50.1799 29.1967 49.8949 28.7122L49.9049 28.7072Z" fill="#1C75BC"/>
<path d="M66.1896 27.8432V32.2482H76.0396V37.5571H66.1896V46.9614H59.2246V22.4694H76.7296V27.8482H66.1896V27.8432Z" fill="#1C75BC"/>
<path d="M78.8291 46.9564V22.4644H85.8591V46.9564H78.8291Z" fill="#1C75BC"/>
<path d="M102.484 46.9564L95.1143 32.7326L95.1793 46.9564H88.6543V22.4644H96.0893L103.584 36.7231L103.489 22.4644H110.044V46.9564H102.484Z" fill="#1C75BC"/>
<path d="M128.615 46.9564L127.645 43.5203H119.93L118.955 46.9564H111.425L119.895 22.4644H127.865L136.145 46.9564H128.615ZM123.85 29.4364L121.435 38.0765H126.205L123.85 29.4364Z" fill="#1C75BC"/>
<path d="M151.515 46.9564L144.145 32.7326L144.21 46.9564H137.685V22.4644H145.12L152.615 36.7231L152.52 22.4644H159.075V46.9564H151.515Z" fill="#1C75BC"/>
<path d="M181.885 43.5553C180.57 45.2234 177.745 47.7205 172.82 47.7205C169.995 47.7205 167.485 46.9564 165.325 44.9087C161.62 41.4726 161.34 36.5832 161.34 34.8502C161.34 33.3569 161.495 29.9608 163.63 26.6645C166.675 21.91 170.91 21.5654 172.855 21.5654C177.905 21.5654 180.915 24.477 182.14 26.0403C182.8 26.8743 183.115 27.4636 183.585 28.3976L177.715 31.6239C177.62 31.3792 177.495 31.1394 177.405 30.8947C177.03 30.0607 175.93 27.5286 173.105 27.5635C171.82 27.5635 171.005 28.0829 170.565 28.4325C168.37 30.2355 168.465 33.7764 168.465 34.4007C168.465 37.7669 169.44 39.5698 170.505 40.5087C171.6 41.4477 172.605 41.4776 173.14 41.4776C175.555 41.4776 176.685 39.6747 177.125 38.8406C177.28 38.496 177.41 38.1814 177.625 37.4522L183.615 40.6436C182.83 42.2368 182.425 42.8661 181.89 43.5553H181.885Z" fill="#1C75BC"/>
<path d="M185.395 46.9564V22.4644H202.935V27.8432H192.425V31.4841H202.245V36.793H192.395V41.6525H203.875V46.9614H185.395V46.9564Z" fill="#1C75BC"/>
<path d="M66.0049 15.8369V1.18365H67.2649V15.8369H66.0049Z" fill="#1C75BC"/>
<path d="M79.3196 15.8369L71.5496 3.17638V15.8369H70.3096V1.18365H71.5496L79.4146 13.7193L79.3196 1.18365H80.5596V15.8369H79.3196Z" fill="#1C75BC"/>
<path d="M87.7904 2.40726V15.8369H86.5303V2.40726H82.3604V1.18365H91.9704V2.40726H87.7854H87.7904Z" fill="#1C75BC"/>
<path d="M93.7852 15.8369V1.18365H102.44V2.44721H95.0452V7.68124H101.745V8.96977H95.0452V14.5534H102.91V15.8419H93.7852V15.8369Z" fill="#1C75BC"/>
<path d="M113.69 15.8369L109.505 9.33934H106.41V15.8369H105.135V1.18364H108.87C109.6 1.18364 110.35 1.16367 111.105 1.20362C111.63 1.24358 113.45 1.34846 114.39 3.15639C114.58 3.53097 114.895 4.28011 114.895 5.37886C114.895 7.12187 114.07 8.4953 112.585 9.02969C112.21 9.17452 111.795 9.2794 110.97 9.33934L115.27 15.8369H113.695H113.69ZM113.26 3.67081C112.64 2.52711 111.57 2.42722 110.5 2.42722H106.41V8.13571H109.525C109.865 8.13571 110.22 8.13571 110.575 8.11573C111.535 8.07578 112.545 8.01085 113.185 7.03696C113.39 6.72732 113.655 6.20791 113.655 5.31393C113.655 5.04424 113.635 4.34004 113.26 3.6758V3.67081Z" fill="#1C75BC"/>
<path d="M126.275 15.8369L118.505 3.17638V15.8369H117.265V1.18365H118.505L126.37 13.7193L126.28 1.18365H127.52V15.8369H126.28H126.275Z" fill="#1C75BC"/>
<path d="M139.59 15.8369L138.07 11.417H132.135L130.615 15.8369H129.225L134.63 1.18365H135.68L140.955 15.8369H139.585H139.59ZM135.14 2.80181L132.55 10.2933H137.695L135.14 2.80181Z" fill="#1C75BC"/>
<path d="M145.23 2.40726V15.8369H143.975V2.40726H139.805V1.18365H149.415V2.40726H145.23Z" fill="#1C75BC"/>
<path d="M151.225 15.8369V1.18365H152.485V15.8369H151.225Z" fill="#1C75BC"/>
<path d="M164.854 14.054C164.589 14.4285 163.894 15.3425 162.769 15.817C162.354 15.9818 161.719 16.2115 160.684 16.2115C159.144 16.2115 157.904 15.732 156.834 14.5084C155.989 13.5346 154.939 11.6667 154.939 8.47034C154.939 7.68124 154.959 4.7346 156.704 2.637C156.969 2.32735 157.569 1.63814 158.524 1.22361C158.939 1.03882 159.649 0.809082 160.684 0.809082C161.584 0.809082 163.689 0.93394 165.114 3.25629C165.659 4.13029 166.369 5.85333 166.354 8.42539C166.354 10.2733 165.904 12.5157 164.854 14.049V14.054ZM163.689 3.53098C163.539 3.34119 163.129 2.82678 162.524 2.47218C162.204 2.28739 161.624 2.0177 160.684 2.0177C157.399 2.0177 156.274 5.5287 156.274 8.51529C156.274 9.03469 156.294 12.0862 157.909 13.8092C158.679 14.6183 159.599 14.9729 160.629 14.9729C161.794 14.9729 162.714 14.5983 163.479 13.6444C164.964 11.8615 165.019 8.95478 165.019 8.43538C165.039 7.87602 164.999 5.29896 163.684 3.53597L163.689 3.53098Z" fill="#1C75BC"/>
<path d="M177.835 15.8369L170.065 3.17638V15.8369H168.825V1.18365H170.065L177.93 13.7193L177.835 1.18365H179.075V15.8369H177.835Z" fill="#1C75BC"/>
<path d="M191.15 15.8369L189.63 11.417H183.7L182.18 15.8369H180.79L186.195 1.18365H187.245L192.52 15.8369H191.15ZM186.7 2.80181L184.11 10.2933H189.255L186.7 2.80181Z" fill="#1C75BC"/>
<path d="M194.255 15.8369V1.18365H195.53V14.5534H202.85V15.8419H194.25L194.255 15.8369Z" fill="#1C75BC"/>
<path d="M9.51512 57.8636C9.42012 57.3243 9.23512 56.8448 8.97012 56.3703C8.50012 55.5613 7.67512 54.5824 5.72512 54.5824C5.44012 54.5824 4.48512 54.5624 3.67512 55.0618C3.02012 55.4564 2.51012 56.1206 2.15512 56.8248C1.72512 57.6739 1.31012 58.8575 1.31012 60.9751C1.31012 61.4096 1.31012 62.4084 1.55512 63.5921C1.82012 64.9406 2.60512 67.5176 5.93012 67.5176C7.13012 67.5176 8.05012 67.1031 8.80012 66.0243C9.29012 65.3201 9.44012 64.7558 9.51012 64.4062L10.6951 65.1953C10.0351 66.7735 9.17512 67.6025 8.61012 67.9971C8.10512 68.3517 7.20012 68.7662 5.77512 68.7662C5.04512 68.7662 2.86512 68.6863 1.44012 66.6686C0.0101173 64.6958 -0.00488281 61.7092 -0.00488281 61.1449C-0.00488281 60.4407 -0.00488281 57.3492 1.63012 55.2516C2.27012 54.4226 3.04012 53.9831 3.35512 53.8183C3.79012 53.6085 4.52012 53.3638 5.64512 53.3638C6.37512 53.3638 7.13012 53.4686 7.82512 53.7383C9.36512 54.3177 10.1701 55.5663 10.7901 57.1644L9.51512 57.8736V57.8636Z" fill="#1C75BC"/>
<path d="M30.33 66.604C30.065 66.9786 29.37 67.8925 28.245 68.367C27.83 68.5318 27.195 68.7615 26.16 68.7615C24.62 68.7615 23.38 68.2821 22.31 67.0585C21.465 66.0846 20.415 64.2167 20.415 61.0154C20.415 60.2263 20.435 57.2797 22.18 55.1821C22.445 54.8724 23.045 54.1832 24 53.7737C24.415 53.5889 25.125 53.3591 26.16 53.3591C27.06 53.3591 29.165 53.484 30.59 55.8063C31.135 56.6803 31.85 58.4034 31.83 60.9754C31.83 62.8233 31.38 65.0658 30.33 66.604ZM29.165 56.076C29.015 55.8912 28.605 55.3718 28 55.0172C27.68 54.8325 27.1 54.5628 26.16 54.5628C22.875 54.5628 21.75 58.0738 21.75 61.0603C21.75 61.5798 21.77 64.6313 23.385 66.3543C24.155 67.1634 25.075 67.518 26.105 67.518C27.27 67.518 28.19 67.1434 28.955 66.1895C30.44 64.4065 30.495 61.4998 30.495 60.9804C30.515 60.4211 30.475 57.844 29.16 56.081L29.165 56.076Z" fill="#1C75BC"/>
<path d="M50.7454 68.387L46.5604 61.8894H43.4654V68.387H42.1904V53.7337H45.9254C46.6554 53.7337 47.4054 53.7137 48.1604 53.7537C48.6854 53.7936 50.5054 53.8985 51.4454 55.7064C51.6354 56.081 51.9504 56.8302 51.9504 57.9289C51.9504 59.6719 51.1254 61.0454 49.6404 61.5797C49.2654 61.7246 48.8504 61.8295 48.0254 61.8944L52.3254 68.392H50.7504L50.7454 68.387ZM50.3154 56.2259C49.6954 55.0822 48.6254 54.9773 47.5554 54.9773H43.4654V60.6858H46.5804C46.9204 60.6858 47.2754 60.6858 47.6304 60.6658C48.5904 60.6258 49.6004 60.5609 50.2404 59.587C50.4454 59.2774 50.7104 58.758 50.7104 57.864C50.7104 57.5943 50.6904 56.8901 50.3154 56.2209V56.2259Z" fill="#1C75BC"/>
<path d="M71.445 60.3961C71.07 60.9355 70.675 61.1652 70.47 61.2901C69.53 61.7895 68.44 61.7895 66.34 61.7895H63.41V68.3919H62.21V53.7387H66.755C67.525 53.7387 68.295 53.7187 69.085 53.7986C70.005 53.8785 70.72 54.1132 71.335 54.8973C71.69 55.3518 72.2 56.2658 72.2 57.7391C72.2 58.673 71.975 59.627 71.45 60.3961H71.445ZM70.6 56.056C69.98 54.9373 69.04 54.9373 68.01 54.9123C67.54 54.9123 67.07 54.8924 66.62 54.8924H63.41V60.5609H66.245C66.83 60.5609 67.39 60.5409 67.955 60.5409C68.895 60.5209 69.795 60.481 70.435 59.607C70.7 59.2524 70.98 58.733 70.98 57.7191C70.98 57.4694 70.98 56.7452 70.605 56.056H70.6Z" fill="#1C75BC"/>
<path d="M91.165 66.604C90.9 66.9786 90.205 67.8925 89.08 68.367C88.665 68.5318 88.03 68.7615 86.995 68.7615C85.455 68.7615 84.215 68.2821 83.145 67.0585C82.3 66.0846 81.25 64.2167 81.25 61.0154C81.25 60.2263 81.27 57.2797 83.015 55.1821C83.28 54.8724 83.875 54.1832 84.835 53.7737C85.25 53.5889 85.96 53.3591 86.995 53.3591C87.895 53.3591 90 53.484 91.425 55.8063C91.97 56.6803 92.685 58.4034 92.665 60.9754C92.665 62.8233 92.215 65.0658 91.165 66.604ZM90 56.076C89.85 55.8912 89.44 55.3718 88.835 55.0172C88.515 54.8325 87.935 54.5628 86.995 54.5628C83.71 54.5628 82.585 58.0738 82.585 61.0603C82.585 61.5798 82.605 64.6313 84.22 66.3543C84.99 67.1634 85.91 67.518 86.94 67.518C88.105 67.518 89.025 67.1434 89.79 66.1895C91.275 64.4065 91.33 61.4998 91.33 60.9804C91.35 60.4211 91.31 57.844 89.995 56.081L90 56.076Z" fill="#1C75BC"/>
<path d="M111.585 68.387L107.4 61.8894H104.305V68.387H103.03V53.7337H106.765C107.495 53.7337 108.245 53.7137 109 53.7537C109.525 53.7936 111.345 53.8985 112.285 55.7064C112.475 56.081 112.79 56.8302 112.79 57.9289C112.79 59.6719 111.965 61.0454 110.48 61.5797C110.105 61.7246 109.69 61.8295 108.865 61.8944L113.165 68.392H111.59L111.585 68.387ZM111.155 56.2259C110.535 55.0822 109.465 54.9773 108.395 54.9773H104.305V60.6858H107.42C107.76 60.6858 108.115 60.6858 108.47 60.6658C109.43 60.6258 110.44 60.5609 111.08 59.587C111.285 59.2774 111.55 58.758 111.55 57.864C111.55 57.5943 111.53 56.8901 111.155 56.2209V56.2259Z" fill="#1C75BC"/>
<path d="M132.075 68.387L130.555 63.967H124.62L123.1 68.387H121.71L127.115 53.7337H128.165L133.44 68.387H132.07H132.075ZM127.625 55.3519L125.035 62.8483H130.18L127.625 55.3519Z" fill="#1C75BC"/>
<path d="M145.6 54.9573V68.387H144.345V54.9573H140.175V53.7337H149.785V54.9573H145.6Z" fill="#1C75BC"/>
<path d="M159.485 68.387V53.7337H160.74V68.387H159.485Z" fill="#1C75BC"/>
<path d="M181.005 66.604C180.745 66.9786 180.045 67.8925 178.925 68.367C178.51 68.5318 177.875 68.7615 176.84 68.7615C175.3 68.7615 174.065 68.2821 172.995 67.0585C172.15 66.0846 171.1 64.2167 171.1 61.0154C171.1 60.2263 171.12 57.2797 172.865 55.1821C173.13 54.8724 173.73 54.1832 174.685 53.7737C175.1 53.5889 175.81 53.3591 176.845 53.3591C177.745 53.3591 179.85 53.484 181.275 55.8063C181.815 56.6803 182.53 58.4034 182.51 60.9754C182.51 62.8233 182.06 65.0658 181.01 66.604H181.005ZM179.84 56.076C179.69 55.8912 179.28 55.3718 178.675 55.0172C178.355 54.8325 177.775 54.5628 176.835 54.5628C173.55 54.5628 172.425 58.0738 172.425 61.0603C172.425 61.5798 172.445 64.6313 174.06 66.3543C174.825 67.1634 175.75 67.518 176.78 67.518C177.945 67.518 178.865 67.1434 179.63 66.1895C181.115 64.4065 181.17 61.4998 181.17 60.9804C181.19 60.4211 181.155 57.844 179.84 56.081V56.076Z" fill="#1C75BC"/>
<path d="M201.87 68.387L194.1 55.7264V68.387H192.86V53.7337H194.1L201.965 66.2694L201.87 53.7337H203.11V68.387H201.87Z" fill="#1C75BC"/>
<path d="M246.85 54.6626C255.3 54.7775 265.055 52.8048 276 47.2861V37.8019C273.915 39.3052 262.11 47.331 246.855 48.2849V54.6676L246.85 54.6626Z" fill="url(#paint0_linear_0_294)"/>
<path d="M246.85 64.5563C255.3 64.866 265.05 63.0231 276 57.5094V50.9069C273.92 52.1705 261.985 58.9927 246.845 59.0277V64.5513L246.85 64.5563Z" fill="url(#paint1_linear_0_294)"/>
<path d="M246.85 92H276V61.1502C273.9 62.4987 261.98 69.7004 246.855 69.4807V92H246.85Z" fill="url(#paint2_linear_0_294)"/>
<path d="M275.835 22.9388L246.8 22.814L246.85 32.7326C255.25 32.1233 264.945 29.3365 275.835 22.9388Z" fill="url(#paint3_linear_0_294)"/>
<path d="M246.855 37.7519L246.845 43.4404C255.305 43.0209 265.065 40.4139 275.995 34.156V26.5197C273.91 28.0879 262.11 36.4883 246.85 37.7519H246.855Z" fill="url(#paint4_linear_0_294)"/>
<path d="M246.85 54.6626V48.2799C244.095 48.4497 241.22 48.3948 238.27 48.0252V53.8036C240.96 54.313 243.82 54.6227 246.85 54.6626Z" fill="url(#paint5_linear_0_294)"/>
<path d="M246.85 64.5563V59.0326C244.08 59.0426 241.205 58.8179 238.265 58.2985L238.28 63.4676C240.97 64.0619 243.825 64.4464 246.85 64.5563Z" fill="url(#paint6_linear_0_294)"/>
<path d="M238.274 69.191L246.819 92L246.854 69.4807C244.049 69.4407 241.259 69.1661 238.274 68.5268V69.191Z" fill="url(#paint7_linear_0_294)"/>
<path d="M246.849 32.7027V22.814L238.279 0.124878V32.6028C238.279 32.6028 244.244 33.1272 246.849 32.7077V32.7027Z" fill="url(#paint8_linear_0_294)"/>
<path d="M246.85 43.4404L246.86 37.7519C244.095 37.9817 241.225 37.9767 238.27 37.657V43.1208C240.965 43.4654 243.825 43.5903 246.85 43.4404Z" fill="url(#paint9_linear_0_294)"/>
<path d="M209.18 36.9079C210.77 38.8507 220.92 50.5124 238.27 53.8036V48.0252C228.945 46.8515 218.86 42.5614 209.18 32.6078V36.9079Z" fill="url(#paint10_linear_0_294)"/>
<path d="M209.18 45.1584C210.77 47.2211 220.92 59.6369 238.28 63.4625L238.265 58.2934C228.81 56.6154 218.665 51.8158 209.18 41.3828V45.1584Z" fill="url(#paint11_linear_0_294)"/>
<path d="M209.18 49.6483V69.186H238.275V68.5268C228.85 66.5191 218.625 61.1052 209.18 49.6483Z" fill="url(#paint12_linear_0_294)"/>
<path d="M238.28 32.6028V0.124858L209.13 0V18.0294C210.715 19.8573 220.865 30.7799 238.28 32.6028Z" fill="url(#paint13_linear_0_294)"/>
<path d="M238.27 37.657C228.945 36.6432 218.86 32.4629 209.18 22.5143V28.1279C210.77 29.9558 220.97 40.9283 238.27 43.1208V37.657Z" fill="url(#paint14_linear_0_294)"/>
</g>
<defs>
<linearGradient id="paint0_linear_0_294" x1="255.31" y1="50.9119" x2="274.106" y2="41.2705" gradientUnits="userSpaceOnUse">
<stop offset="0.44" stop-color="#27AAE1"/>
<stop offset="1" stop-color="#1C75BC"/>
</linearGradient>
<linearGradient id="paint1_linear_0_294" x1="259.225" y1="59.3972" x2="277.951" y2="49.7908" gradientUnits="userSpaceOnUse">
<stop offset="0.44" stop-color="#27AAE1"/>
<stop offset="1" stop-color="#1C75BC"/>
</linearGradient>
<linearGradient id="paint2_linear_0_294" x1="267.815" y1="77.4716" x2="286.841" y2="67.7151" gradientUnits="userSpaceOnUse">
<stop offset="0.44" stop-color="#27AAE1"/>
<stop offset="1" stop-color="#1C75BC"/>
</linearGradient>
<linearGradient id="paint3_linear_0_294" x1="245.885" y1="30.8548" x2="264.536" y2="21.2934" gradientUnits="userSpaceOnUse">
<stop offset="0.44" stop-color="#27AAE1"/>
<stop offset="1" stop-color="#1C75BC"/>
</linearGradient>
<linearGradient id="paint4_linear_0_294" x1="250.88" y1="41.4077" x2="269.676" y2="31.7663" gradientUnits="userSpaceOnUse">
<stop offset="0.44" stop-color="#27AAE1"/>
<stop offset="1" stop-color="#1C75BC"/>
</linearGradient>
<linearGradient id="paint5_linear_0_294" x1="238.27" y1="51.3414" x2="246.855" y2="51.3414" gradientUnits="userSpaceOnUse">
<stop stop-color="#1C75BC"/>
<stop offset="1" stop-color="#2B3990"/>
</linearGradient>
<linearGradient id="paint6_linear_0_294" x1="238.265" y1="61.4249" x2="246.85" y2="61.4249" gradientUnits="userSpaceOnUse">
<stop stop-color="#1C75BC"/>
<stop offset="1" stop-color="#2B3990"/>
</linearGradient>
<linearGradient id="paint7_linear_0_294" x1="238.274" y1="80.2634" x2="246.854" y2="80.2634" gradientUnits="userSpaceOnUse">
<stop stop-color="#1C75BC"/>
<stop offset="1" stop-color="#2B3990"/>
</linearGradient>
<linearGradient id="paint8_linear_0_294" x1="238.279" y1="16.4962" x2="246.849" y2="16.4962" gradientUnits="userSpaceOnUse">
<stop stop-color="#1C75BC"/>
<stop offset="1" stop-color="#2B3990"/>
</linearGradient>
<linearGradient id="paint9_linear_0_294" x1="-0.000373109" y1="40.5787" x2="246.855" y2="40.5787" gradientUnits="userSpaceOnUse">
<stop stop-color="#1C75BC"/>
<stop offset="1" stop-color="#2B3990"/>
</linearGradient>
<linearGradient id="paint10_linear_0_294" x1="238.27" y1="43.2057" x2="209.18" y2="43.2057" gradientUnits="userSpaceOnUse">
<stop offset="0.44" stop-color="#27AAE1"/>
<stop offset="1" stop-color="#1C75BC"/>
</linearGradient>
<linearGradient id="paint11_linear_0_294" x1="238.28" y1="52.4251" x2="209.18" y2="52.4251" gradientUnits="userSpaceOnUse">
<stop offset="0.44" stop-color="#27AAE1"/>
<stop offset="1" stop-color="#1C75BC"/>
</linearGradient>
<linearGradient id="paint12_linear_0_294" x1="238.275" y1="59.4172" x2="209.18" y2="59.4172" gradientUnits="userSpaceOnUse">
<stop offset="0.44" stop-color="#27AAE1"/>
<stop offset="1" stop-color="#1C75BC"/>
</linearGradient>
<linearGradient id="paint13_linear_0_294" x1="238.28" y1="16.3014" x2="209.13" y2="16.3014" gradientUnits="userSpaceOnUse">
<stop offset="0.44" stop-color="#27AAE1"/>
<stop offset="1" stop-color="#1C75BC"/>
</linearGradient>
<linearGradient id="paint14_linear_0_294" x1="238.27" y1="32.8175" x2="209.18" y2="32.8175" gradientUnits="userSpaceOnUse">
<stop offset="0.44" stop-color="#27AAE1"/>
<stop offset="1" stop-color="#1C75BC"/>
</linearGradient>
<clipPath id="clip0_0_294">
<rect width="276" height="92" fill="white"/>
</clipPath>
</defs>
</svg>
