<svg width="52" height="52" viewBox="0 0 52 52" fill="none" xmlns="http://www.w3.org/2000/svg">
<path d="M26.0004 0C15.6161 0 7.16797 8.44817 7.16797 18.8323C7.16797 31.7194 24.0211 50.6384 24.7387 51.4375C25.4127 52.1881 26.5894 52.1868 27.2621 51.4375C27.9796 50.6384 44.8328 31.7194 44.8328 18.8323C44.8326 8.44817 36.3846 0 26.0004 0ZM26.0004 28.3074C20.7758 28.3074 16.5254 24.0569 16.5254 18.8323C16.5254 13.6077 20.7759 9.35736 26.0004 9.35736C31.2249 9.35736 35.4753 13.6079 35.4753 18.8324C35.4753 24.057 31.2249 28.3074 26.0004 28.3074Z" fill="#19417B"/>
<path d="M26.0004 28.3074C20.7758 28.3074 16.5254 24.0569 16.5254 18.8323C16.5254 13.6077 20.7759 9.35736 26.0004 9.35736C31.2249 9.35736 35.4753 13.6079 35.4753 18.8324C35.4753 24.057 31.2249 28.3074 26.0004 28.3074Z" fill="white"/>
</svg>
