<svg width="90" height="90" viewBox="0 0 90 90" fill="none" xmlns="http://www.w3.org/2000/svg">
<path d="M84.024 24.7393C91.824 13.5143 90.824 5.76431 87.6 2.53931C83.967 -1.09469 75.6 -1.49469 65.087 5.80131C60.756 8.80831 56.587 13.0293 52.272 17.6163C48.957 17.4463 45.732 17.2833 42.62 17.1313L43.62 16.1313C44.3267 15.4034 44.7187 14.4266 44.7112 13.4121C44.7038 12.3976 44.2975 11.4267 43.5801 10.7092C42.8628 9.99176 41.892 9.58529 40.8775 9.57763C39.8629 9.56998 38.8861 9.96175 38.158 10.6683L32.504 16.3233C32.4103 16.4196 32.3354 16.5325 32.283 16.6563C30.693 16.5893 29.16 16.5293 27.673 16.4753L28.004 16.1393C28.7283 15.415 29.1353 14.4326 29.1353 13.4083C29.1353 12.384 28.7283 11.4016 28.004 10.6773C27.2797 9.95301 26.2974 9.54609 25.273 9.54609C24.2487 9.54609 23.2663 9.95301 22.542 10.6773L17.015 16.2043C15.355 16.1873 13.82 16.1883 12.459 16.2133C3.05904 16.3833 0.778044 17.6263 0.145044 19.5763C-0.604956 21.9073 1.62404 23.6393 5.20404 25.5313C7.47804 26.7313 10.735 28.2003 14.182 29.7563C17.02 31.0363 19.953 32.3563 22.647 33.6683C25.826 35.2123 29.006 36.9053 32.317 38.8003C27.0921 44.6924 22.3847 51.0238 18.247 57.7243L5.87704 55.5303C5.68438 55.4957 5.48594 55.5134 5.30247 55.5816C5.11899 55.6499 4.95722 55.7662 4.83404 55.9183L1.61604 59.8743C1.51646 59.9975 1.44466 60.1407 1.40555 60.2942C1.36644 60.4477 1.36093 60.6079 1.38942 60.7637C1.4179 60.9195 1.47971 61.0673 1.5706 61.197C1.66149 61.3268 1.77932 61.4353 1.91604 61.5153L13.449 68.2303C13.1716 69.2416 13.0152 70.2822 12.983 71.3303L9.57504 74.7393C8.85074 75.4636 8.44383 76.446 8.44383 77.4703C8.44383 78.4946 8.85074 79.477 9.57504 80.2013C10.2993 80.9256 11.2817 81.3325 12.306 81.3325C13.3304 81.3325 14.3127 80.9256 15.037 80.2013L18.544 76.6943C19.5391 76.644 20.5256 76.485 21.486 76.2203L28.263 87.8613C28.343 87.9981 28.4516 88.1161 28.5814 88.207C28.7112 88.298 28.8591 88.3598 29.015 88.3883C29.081 88.4005 29.148 88.4065 29.215 88.4063C29.4671 88.406 29.7114 88.3192 29.907 88.1603L33.864 84.9423C34.0156 84.8187 34.1315 84.6568 34.1997 84.4735C34.2679 84.2902 34.2859 84.092 34.252 83.8993L32.028 71.3843C38.6999 67.2565 45.0069 62.5661 50.88 57.3643C52.78 60.6773 54.47 63.8583 56.013 67.0363C57.323 69.7313 58.647 72.6673 59.928 75.5063C61.482 78.9513 62.95 82.2063 64.15 84.4793C65.791 87.5883 67.316 89.6793 69.216 89.6793C69.5182 89.6777 69.8182 89.6284 70.105 89.5333C72.055 88.9013 73.298 86.6213 73.468 77.2193C73.5 75.4713 73.494 73.4543 73.46 71.2193L78.848 65.8393C79.2067 65.4807 79.4912 65.0549 79.6853 64.5863C79.8794 64.1177 79.9793 63.6155 79.9793 63.1083C79.9793 62.6011 79.8794 62.0989 79.6853 61.6303C79.4912 61.1617 79.2067 60.736 78.848 60.3773C78.4894 60.0187 78.0636 59.7342 77.595 59.5401C77.1265 59.346 76.6242 59.2461 76.117 59.2461C75.6098 59.2461 75.1076 59.346 74.639 59.5401C74.1705 59.7342 73.7447 60.0187 73.386 60.3773L73.154 60.6093C73.098 59.1593 73.036 57.6553 72.969 56.1143L78.284 50.8003C78.9907 50.0724 79.3827 49.0956 79.3752 48.0811C79.3678 47.0666 78.9615 46.0957 78.2441 45.3782C77.5268 44.6608 76.556 44.2543 75.5415 44.2466C74.5269 44.239 73.5501 44.6308 72.822 45.3373L72.482 45.6773C72.352 43.0293 72.213 40.3033 72.07 37.5143C76.717 33.2153 81.004 29.0813 84.024 24.7393ZM39.71 12.2203C40.0287 11.919 40.4505 11.7512 40.889 11.7512C41.3275 11.7512 41.7494 11.919 42.068 12.2203C42.3787 12.5343 42.5529 12.9581 42.5529 13.3998C42.5529 13.8415 42.3787 14.2653 42.068 14.5793L39.975 16.6723C39.8855 16.7658 39.8134 16.8745 39.762 16.9933C38.19 16.918 36.6527 16.847 35.15 16.7803L39.71 12.2203ZM24.098 12.2293C24.4164 11.9276 24.8384 11.7594 25.277 11.7594C25.7157 11.7594 26.1377 11.9276 26.456 12.2293C26.7666 12.5431 26.9409 12.9668 26.9409 13.4083C26.9409 13.8498 26.7666 14.2735 26.456 14.5873L24.671 16.3723C23.062 16.3213 21.527 16.2803 20.077 16.2503L24.098 12.2293ZM23.604 31.6943C20.883 30.3713 17.934 29.0413 15.083 27.7553C11.667 26.2143 8.44104 24.7553 6.22704 23.5903C3.35404 22.0733 2.01104 20.9513 2.23704 20.2533C2.48404 19.4913 4.46504 18.5533 12.503 18.4073C20.587 18.2633 34.351 18.8993 50.303 19.7133L49.987 20.0513C47.587 22.6183 45.11 25.2733 42.478 27.9053C39.404 30.9843 36.504 34.0713 33.794 37.1163C30.298 35.1053 26.952 33.3203 23.604 31.6943ZM4.12804 60.2643L6.12804 57.8043L17.085 59.7483C15.9357 61.7805 14.9451 63.8985 14.122 66.0833L4.12804 60.2643ZM13.485 78.6523C13.1665 78.9538 12.7446 79.1218 12.306 79.1218C11.8675 79.1218 11.4455 78.9538 11.127 78.6523C10.8148 78.3394 10.6394 77.9154 10.6394 77.4733C10.6394 77.0312 10.8148 76.6072 11.127 76.2943L14.852 72.5683L18.76 68.6603C18.9148 68.5055 19.0986 68.3828 19.301 68.2992C19.5033 68.2156 19.7201 68.1728 19.939 68.1733C20.1195 68.1754 20.2984 68.2065 20.469 68.2653C20.7133 68.3451 20.9357 68.4803 21.119 68.6603C21.4296 68.9741 21.6039 69.3978 21.6039 69.8393C21.6039 70.2808 21.4296 70.7045 21.119 71.0183L13.485 78.6523ZM23.161 71.9713C23.205 71.9033 23.233 71.8293 23.273 71.7603C23.3632 71.613 23.4437 71.46 23.514 71.3023C23.562 71.1833 23.588 71.0583 23.624 70.9353C23.66 70.8123 23.704 70.7083 23.724 70.5893C23.8209 70.094 23.8209 69.5846 23.724 69.0893C23.701 68.9723 23.656 68.8623 23.624 68.7483C23.5929 68.6224 23.5552 68.4983 23.511 68.3763C23.4404 68.2161 23.3593 68.0608 23.268 67.9113C23.229 67.8443 23.202 67.7733 23.159 67.7113C23.0165 67.4955 22.8527 67.2945 22.67 67.1113C22.3534 66.8011 21.9853 66.5483 21.582 66.3643C21.518 66.3333 21.458 66.2913 21.393 66.2643C20.6892 65.9792 19.917 65.9075 19.1726 66.0581C18.4283 66.2087 17.7447 66.575 17.207 67.1113L15.541 68.7783C15.59 68.5783 15.65 68.3783 15.709 68.1723C15.7613 68.064 15.7951 67.9477 15.809 67.8283C18.509 59.0913 29.478 44.0143 44.03 29.4613C46.689 26.8033 49.181 24.1343 51.591 21.5533C56.655 16.1303 61.438 11.0073 66.334 7.60831C77.177 0.0813122 83.968 2.01931 86.044 4.09531C88.88 6.93031 88.796 14.0273 82.218 23.4953C78.918 28.2413 73.918 32.8373 68.624 37.7043C65.875 40.2303 63.032 42.8433 60.224 45.6553C45.724 60.1553 30.607 71.1553 21.855 73.8723C21.7616 73.887 21.6705 73.9139 21.584 73.9523C21.449 73.9923 21.31 74.0363 21.178 74.0723L22.672 72.5783C22.8545 72.3925 23.0183 72.1892 23.161 71.9713ZM31.975 83.6493L29.515 85.6493L23.631 75.5453C25.8296 74.7098 27.9609 73.7069 30.006 72.5453L31.975 83.6493ZM71.275 77.1783C71.129 85.2163 70.191 87.1973 69.43 87.4443C68.73 87.6683 67.608 86.3273 66.092 83.4543C64.924 81.2413 63.469 78.0173 61.93 74.6033C60.642 71.7503 59.312 68.8033 57.988 66.0763C56.363 62.7303 54.577 59.3833 52.565 55.8863C55.613 53.1803 58.701 50.2743 61.777 47.1993C64.509 44.4673 67.284 41.9133 69.972 39.4423C70.126 42.4423 70.272 45.3713 70.409 48.1973V48.2083C70.424 48.5323 70.441 48.8623 70.456 49.1843C70.465 49.3693 70.473 49.5513 70.482 49.7353C70.544 51.0353 70.603 52.3053 70.66 53.5573C70.685 54.1183 70.711 54.6823 70.735 55.2353C70.864 58.1583 70.974 60.9253 71.063 63.5173C71.127 65.3833 71.177 67.0833 71.214 68.6593C71.214 68.8383 71.223 69.0193 71.226 69.1963C71.236 69.6323 71.244 70.0543 71.252 70.4723C71.298 72.9923 71.309 75.2523 71.274 77.1783H71.275ZM74.939 61.9243C75.0928 61.7647 75.2768 61.6372 75.4804 61.5495C75.684 61.4618 75.903 61.4156 76.1246 61.4134C76.3463 61.4113 76.5661 61.4534 76.7713 61.5373C76.9765 61.6211 77.1629 61.745 77.3197 61.9017C77.4765 62.0584 77.6004 62.2447 77.6843 62.4499C77.7682 62.6551 77.8104 62.8749 77.8084 63.0965C77.8064 63.3182 77.7602 63.5372 77.6726 63.7408C77.585 63.9444 77.4576 64.1285 77.298 64.2823L73.398 68.1823C73.39 67.8723 73.383 67.5643 73.374 67.2473C73.365 66.9303 73.355 66.5843 73.346 66.2523C73.324 65.519 73.3004 64.7686 73.275 64.0013C73.275 63.8673 73.267 63.7373 73.262 63.6013L74.939 61.9243ZM74.375 46.8843C74.6937 46.583 75.1155 46.4152 75.554 46.4152C75.9926 46.4152 76.4144 46.583 76.733 46.8843C77.0437 47.1983 77.2179 47.6221 77.2179 48.0638C77.2179 48.5055 77.0437 48.9293 76.733 49.2433L72.838 53.1393C72.79 52.076 72.74 51.0006 72.688 49.9133C72.672 49.5833 72.657 49.2563 72.641 48.9233L72.627 48.6333L74.375 46.8843ZM65.63 12.2393C65.4522 12.0091 65.3727 11.7179 65.4091 11.4293C65.4455 11.1406 65.5947 10.8782 65.824 10.6993C70.893 6.76531 76.924 6.26431 80.17 9.50831C83.416 12.7523 82.914 18.8083 78.96 23.8793C78.8758 24.0046 78.7667 24.1112 78.6395 24.1925C78.5124 24.2738 78.3698 24.3281 78.2207 24.3519C78.0717 24.3757 77.9193 24.3686 77.7731 24.331C77.6269 24.2934 77.49 24.2261 77.3709 24.1333C77.2519 24.0405 77.1532 23.9242 77.081 23.7917C77.0088 23.6591 76.9647 23.5131 76.9514 23.3627C76.9381 23.2123 76.9558 23.0608 77.0036 22.9176C77.0514 22.7744 77.1281 22.6426 77.229 22.5303C80.492 18.3423 81.076 13.5183 78.618 11.0603C76.16 8.60231 71.352 9.18931 67.17 12.4393C66.9391 12.6165 66.6474 12.695 66.3587 12.6575C66.0701 12.62 65.808 12.4696 65.63 12.2393Z" fill="#19417B" fill-opacity="0.56"/>
</svg>
